<?xml version="1.0" standalone="no"?>
<!DOCTYPE svg PUBLIC "-//W3C//DTD SVG 1.1//EN" "http://www.w3.org/Graphics/SVG/1.1/DTD/svg11.dtd" >
<svg xmlns="http://www.w3.org/2000/svg">
<metadata>
<json>
<![CDATA[
{
	"fontFamily": "icomoon",
	"description": "Font generated by IcoMoon.",
	"version": "Version 1.0",
	"majorVersion": 0,
	"fontId": "icomoon",
	"psName": "icomoon",
	"subFamily": "Regular",
	"fullName": "icomoon"
}
]]>
</json>
</metadata>
<defs>
<font id="icomoon" horiz-adv-x="1024">
<font-face units-per-em="1024" ascent="960" descent="-64" />
<missing-glyph horiz-adv-x="1024" />
<glyph unicode="&#x20;" horiz-adv-x="512" d="" />
<glyph unicode="&#xe900;" glyph-name="arrow-menu" data-tags="arrow-menu" horiz-adv-x="1664" d="M1632.011 732.895l-723.22-723.22c-10.082-10.124-22.080-18.138-35.25-23.606-13.198-5.496-27.31-8.318-41.597-8.318s-28.427 2.794-41.597 8.318c-13.198 5.496-25.136 13.492-35.25 23.606l-723.22 723.22c-20.371 20.371-31.836 48.007-31.836 76.829s11.437 56.475 31.836 76.839 48.007 31.836 76.829 31.836c28.84 0 56.475-11.437 76.829-31.836l646.493-646.493 646.493 646.574c20.371 20.371 48.007 31.836 76.874 31.836s56.475-11.437 76.818-31.836c20.371-20.371 31.836-48.007 31.836-76.829s-11.437-56.475-31.836-76.829l-0.151-0.088z" />
<glyph unicode="&#xe901;" glyph-name="arrowRight" data-tags="ArrowRight" d="M886.641 425.359l-288-288c-6.005-6.001-14.149-9.377-22.641-9.377s-16.636 3.376-22.641 9.377c-6.001 6.005-9.377 14.149-9.377 22.641s3.376 16.636 9.377 22.641l233.403 233.359h-626.761c-8.487 0-16.626 3.372-22.627 9.373s-9.373 14.139-9.373 22.627c0 8.488 3.372 16.625 9.373 22.627s14.141 9.373 22.627 9.373h626.761l-233.403 233.36c-6.001 6.005-9.377 14.148-9.377 22.64s3.376 16.636 9.377 22.64c6.005 6.005 14.149 9.378 22.641 9.378s16.636-3.373 22.641-9.378l288-287.999c2.973-2.973 5.336-6.502 6.945-10.386s2.439-8.049 2.439-12.255c0-4.206-0.83-8.368-2.439-12.255-1.609-3.884-3.972-7.413-6.945-10.386z" />
<glyph unicode="&#xe902;" glyph-name="arrowLeft" data-tags="ArrowLeft" d="M896.026 448c0-8.488-3.372-16.625-9.373-22.627s-14.142-9.373-22.627-9.373h-626.76l233.402-233.359c2.97-2.973 5.328-6.502 6.938-10.39 1.609-3.884 2.439-8.046 2.439-12.251s-0.83-8.368-2.439-12.251c-1.609-3.888-3.968-7.417-6.938-10.39-2.973-2.973-6.506-5.328-10.39-6.938s-8.046-2.439-12.251-2.439c-4.206 0-8.368 0.83-12.251 2.439-3.888 1.609-7.417 3.964-10.39 6.938l-287.999 288c-2.975 2.973-5.336 6.502-6.946 10.386-1.611 3.888-2.439 8.049-2.439 12.255s0.829 8.371 2.439 12.255c1.61 3.884 3.971 7.413 6.946 10.386l287.999 287.999c6.005 6.005 14.149 9.378 22.641 9.378s16.636-3.373 22.641-9.378c6.001-6.004 9.377-14.148 9.377-22.64s-3.376-16.636-9.377-22.64l-233.402-233.36h626.76c8.485 0 16.625-3.372 22.627-9.373s9.373-14.139 9.373-22.627z" />
<glyph unicode="&#xe903;" glyph-name="tent" data-tags="Tent" d="M1013.914 201.76l-256 576c-1.886 4.238-4.961 7.839-8.851 10.366s-8.429 3.872-13.068 3.873h-448c-4.598-0.007-9.095-1.334-12.96-3.822-3.864-2.49-6.932-6.036-8.841-10.218v-0.56l-256.12-575.64c-1.626-3.654-2.314-7.656-2-11.643s1.619-7.834 3.797-11.187c2.178-3.354 5.16-6.112 8.674-8.020 3.514-1.91 7.45-2.91 11.45-2.91h960.001c3.999 0 7.934 1 11.448 2.91 3.514 1.908 6.496 4.666 8.675 8.020s3.482 7.2 3.796 11.187-0.374 7.989-2 11.643zM263.994 654.92v-438.921h-195.080l195.080 438.921zM311.994 215.999v438.921l195.081-438.921h-195.081zM559.594 215.999l-234.68 528.002h395.481l234.68-528.002h-395.481z" />
<glyph unicode="&#xe904;" glyph-name="suitcaseRolling" data-tags="SuitcaseRolling" d="M407.999 608v-384c0-6.366-2.528-12.469-7.028-16.971-4.502-4.5-10.605-7.028-16.971-7.028s-12.469 2.528-16.971 7.028c-4.5 4.502-7.028 10.605-7.028 16.971v384c0 6.366 2.528 12.469 7.028 16.971 4.502 4.5 10.605 7.028 16.971 7.028s12.469-2.528 16.971-7.028c4.5-4.502 7.028-10.605 7.028-16.971zM512 631.999c-6.366 0-12.469-2.528-16.971-7.028-4.5-4.502-7.028-10.605-7.028-16.971v-384c0-6.366 2.528-12.469 7.028-16.971 4.502-4.5 10.605-7.028 16.971-7.028s12.469 2.528 16.971 7.028c4.5 4.502 7.028 10.605 7.028 16.971v384c0 6.366-2.528 12.469-7.028 16.971-4.502 4.5-10.605 7.028-16.971 7.028zM640 631.999c-6.366 0-12.469-2.528-16.971-7.028-4.5-4.502-7.028-10.605-7.028-16.971v-384c0-6.366 2.528-12.469 7.028-16.971 4.502-4.5 10.605-7.028 16.971-7.028s12.469 2.528 16.971 7.028c4.5 4.502 7.028 10.605 7.028 16.971v384c0 6.366-2.528 12.469-7.028 16.971-4.502 4.5-10.605 7.028-16.971 7.028zM823.999 704v-576c0-14.851-5.9-29.095-16.401-39.598-10.503-10.501-24.747-16.401-39.598-16.401h-72.001v-72.001c0-6.366-2.528-12.469-7.028-16.971-4.502-4.5-10.605-7.028-16.971-7.028s-12.469 2.528-16.971 7.028c-4.5 4.502-7.028 10.605-7.028 16.971v72.001h-272.002v-72.001c0-6.366-2.528-12.469-7.028-16.971-4.502-4.5-10.605-7.028-16.971-7.028s-12.469 2.528-16.971 7.028c-4.5 4.502-7.028 10.605-7.028 16.971v72.001h-72.001c-14.851 0-29.095 5.9-39.598 16.401-10.501 10.503-16.401 24.747-16.401 39.598v576c0 14.851 5.9 29.095 16.401 39.598 10.503 10.501 24.747 16.401 39.598 16.401h104.001v104.001c0 23.339 9.271 45.722 25.774 62.225s38.886 25.775 62.225 25.775h128c23.339 0 45.722-9.271 62.225-25.775s25.774-38.886 25.774-62.225v-104.001h104.001c14.851 0 29.095-5.9 39.598-16.401 10.501-10.503 16.401-24.747 16.401-39.598zM407.999 759.999h208.002v104.001c0 10.609-4.215 20.783-11.716 28.284-7.503 7.501-17.676 11.716-28.285 11.716h-128c-10.609 0-20.782-4.214-28.285-11.716-7.501-7.501-11.716-17.676-11.716-28.284v-104.001zM776.001 704c0 2.121-0.843 4.156-2.343 5.658-1.502 1.5-3.536 2.343-5.658 2.343h-512c-2.121 0-4.156-0.843-5.658-2.343-1.5-1.502-2.343-3.536-2.343-5.658v-576c0-2.121 0.843-4.156 2.343-5.658 1.502-1.5 3.536-2.343 5.658-2.343h512c2.121 0 4.156 0.843 5.658 2.343 1.5 1.502 2.343 3.536 2.343 5.658v576z" />
<glyph unicode="&#xe905;" glyph-name="mountains" data-tags="Mountains" d="M655.995 647.999c20.57 0 40.677 6.1 57.779 17.527 17.104 11.428 30.433 27.67 38.304 46.674 7.873 19.004 9.931 39.916 5.919 60.088-4.012 20.175-13.918 38.705-28.462 53.25-14.546 14.545-33.077 24.45-53.25 28.463-20.175 4.013-41.086 1.953-60.088-5.918-19.004-7.871-35.246-21.202-46.674-38.304s-17.527-37.21-17.527-57.779c0-27.583 10.957-54.035 30.461-73.539s45.957-30.462 73.539-30.462zM655.995 808c11.076 0 21.903-3.284 31.113-9.438s16.387-14.9 20.625-25.132c4.239-10.233 5.347-21.492 3.186-32.355s-7.494-20.842-15.326-28.674c-7.832-7.832-17.809-13.165-28.672-15.326s-22.124-1.051-32.355 3.186c-10.233 4.239-18.98 11.416-25.132 20.625-6.154 9.209-9.438 20.036-9.438 31.113 0 14.851 5.9 29.095 16.401 39.598 10.503 10.502 24.747 16.402 39.598 16.402zM1012.635 172.24l-218.24 368.319c-4.912 8.364-11.926 15.297-20.347 20.11-8.421 4.815-17.954 7.34-27.653 7.33-9.701 0.019-19.238-2.505-27.658-7.32-8.422-4.815-15.435-11.75-20.342-20.12l-111.52-188.199-186.24 316c-4.946 8.404-12 15.369-20.463 20.209-8.465 4.838-18.046 7.385-27.796 7.385s-19.331-2.546-27.795-7.385c-8.465-4.84-15.519-11.805-20.465-20.209l-292.801-496.36c-2.102-3.64-3.211-7.769-3.216-11.974-0.005-4.204 1.095-8.335 3.189-11.981s5.109-6.676 8.743-8.791c3.634-2.113 7.759-3.236 11.963-3.255h959.999c4.236 0.002 8.397 1.123 12.059 3.253 3.663 2.128 6.695 5.19 8.793 8.87 2.096 3.681 3.181 7.852 3.144 12.088s-1.195 8.387-3.355 12.030zM345.076 644c0.703 1.212 1.712 2.219 2.927 2.918 1.213 0.698 2.591 1.067 3.992 1.067 1.403 0 2.778-0.369 3.994-1.067 1.215-0.7 2.224-1.707 2.927-2.918l101.361-172.001h-216.561l101.361 172.001zM73.996 183.999l141.44 240h273.159l141.201-239.879-555.8-0.121zM685.715 183.999l-71.4 121.161 125.001 210.84c0.698 1.208 1.7 2.214 2.906 2.915 1.207 0.703 2.577 1.077 3.973 1.084 1.401 0.022 2.784-0.34 3.995-1.044s2.208-1.725 2.884-2.954l196.801-332.001h-264.161z" />
<glyph unicode="&#xe906;" glyph-name="island" data-tags="Island" d="M946.763 49c-1.968-2.466-4.403-4.519-7.166-6.043s-5.799-2.488-8.934-2.838c-3.135-0.348-6.31-0.077-9.339 0.802-3.031 0.879-5.857 2.347-8.32 4.318-1.521 1.241-157.001 122.761-401 122.761-244.76 0-399.48-121.52-401-122.761-4.975-3.978-11.327-5.816-17.659-5.111s-12.123 3.896-16.101 8.873c-3.978 4.975-5.817 11.327-5.112 17.657 0.705 6.332 3.896 12.124 8.872 16.102 6.52 5.2 156 122.6 398.36 132.56-14.044 51.604-19.238 105.218-15.36 158.56 7.040 88.279 45.559 207 183.199 293.719-27.994 8.598-57.156 12.783-86.439 12.401-78.961-2.56-130.599-50.239-153.481-141.72-1.278-5.21-4.267-9.842-8.486-13.157-4.221-3.313-9.429-5.117-14.793-5.123-1.969 0.005-3.93 0.247-5.84 0.72-3.058 0.766-5.934 2.128-8.465 4.007-2.531 1.877-4.668 4.236-6.287 6.941-1.618 2.703-2.69 5.7-3.151 8.818-0.463 3.118-0.304 6.296 0.463 9.353 35.801 142.961 127.681 175.72 198.519 178 34.732 0.582 69.34-4.291 102.56-14.44-15.601 30.601-41.8 67.84-81.801 84.961-42.199 18.040-93.44 10.48-152.359-22.36-2.758-1.7-5.832-2.825-9.035-3.304-3.205-0.48-6.472-0.307-9.607 0.51s-6.074 2.26-8.636 4.241c-2.563 1.983-4.697 4.463-6.275 7.293s-2.567 5.949-2.908 9.171c-0.34 3.222-0.024 6.479 0.928 9.576s2.522 5.968 4.615 8.442c2.091 2.474 4.663 4.498 7.559 5.952 72.678 40.56 138.24 48.8 194.84 24.48 53.68-23.040 87.079-70.56 106.279-108.639 18.599 32.519 48.56 70.039 92.401 84.319 44.8 14.6 93.479 2.4 144.64-36.28 5.076-3.84 8.419-9.54 9.293-15.845s-0.794-12.699-4.634-17.775c-3.84-5.076-9.54-8.419-15.845-9.293s-12.699 0.792-17.775 4.632c-37.84 28.6-71.721 38.361-100.68 28.96-37.2-12-61.8-52.28-74.8-80 31.609-5.236 62.066-15.944 89.999-31.64 56.6-32.36 124-101.079 124-244.84 0-6.364-2.528-12.469-7.030-16.971-4.5-4.5-10.605-7.028-16.969-7.028-6.366 0-12.471 2.528-16.971 7.028-4.5 4.502-7.030 10.607-7.030 16.971 0 151.68-84.799 204-144 222.36 26.805-43.626 37.265-95.346 29.52-145.959-4.806-32.157-16.41-62.921-34.039-90.24-3.666-5.209-9.25-8.748-15.526-9.841-6.274-1.091-12.727 0.355-17.935 4.021-5.209 3.664-8.748 9.248-9.839 15.524s0.355 12.727 4.019 17.935c3.12 4.48 71.24 105.481-17.56 212.239-113.879-62-176.64-152.759-186.639-270.199-3.961-52.617 1.871-105.511 17.2-156 251.279-5.4 407.079-127.681 413.72-133.001 2.478-1.963 4.543-4.395 6.077-7.159s2.509-5.801 2.865-8.943c0.357-3.14 0.089-6.32-0.787-9.358-0.876-3.036-2.342-5.871-4.316-8.339zM104.003 400c0 20.569 6.099 40.677 17.527 57.779s27.67 30.432 46.674 38.303c19.004 7.873 39.914 9.931 60.088 5.919s38.705-13.918 53.25-28.462c14.544-14.544 24.45-33.075 28.462-53.25 4.014-20.175 1.954-41.085-5.917-60.088-7.873-19.004-21.202-35.246-38.304-46.674s-37.21-17.527-57.779-17.527c-27.583 0-54.036 10.957-73.54 30.461s-30.461 45.957-30.461 73.54zM152.003 400c0-11.076 3.284-21.903 9.438-31.113s14.899-16.387 25.132-20.625c10.233-4.239 21.492-5.349 32.355-3.186 10.863 2.161 20.842 7.494 28.674 15.326s13.165 17.809 15.326 28.672c2.161 10.863 1.051 22.124-3.186 32.355-4.239 10.233-11.418 18.98-20.627 25.132-9.209 6.154-20.036 9.438-31.111 9.438-14.853 0-29.097-5.9-39.598-16.401-10.502-10.503-16.402-24.747-16.402-39.598z" />
<glyph unicode="&#xe907;" glyph-name="barn" data-tags="Barn" d="M960.005 183.996h-40.001v278.721l20.48-28.681c1.84-2.563 4.164-4.739 6.844-6.405 2.679-1.664 5.661-2.785 8.774-3.297s6.296-0.406 9.368 0.311c3.072 0.717 5.972 2.033 8.535 3.872s4.739 4.163 6.403 6.842c1.666 2.679 2.787 5.661 3.299 8.774s0.406 6.296-0.311 9.368c-0.719 3.072-2.033 5.972-3.872 8.535l-160 224c-1.618 2.251-3.606 4.212-5.879 5.801l-270.56 186.759c-9.26 6.173-20.149 9.446-31.276 9.404-11.129-0.043-21.992-3.4-31.205-9.644l-270.239-186.6c-2.273-1.587-4.262-3.55-5.881-5.801l-159.999-224c-1.838-2.563-3.154-5.463-3.872-8.535s-0.823-6.255-0.31-9.368c0.513-3.113 1.633-6.093 3.298-8.772s3.841-5.006 6.404-6.844c2.563-1.84 5.464-3.154 8.536-3.872s6.255-0.823 9.368-0.311c3.113 0.514 6.094 1.633 8.773 3.299 2.679 1.664 5.005 3.84 6.843 6.403l20.48 28.761v-278.721h-40c-6.365 0-12.47-2.528-16.971-7.030-4.501-4.5-7.029-10.605-7.029-16.969 0-6.366 2.529-12.471 7.029-16.971s10.605-7.030 16.971-7.030h896c6.364 0 12.469 2.529 16.971 7.030 4.5 4.5 7.028 10.605 7.028 16.971 0 6.364-2.528 12.469-7.028 16.969-4.502 4.502-10.607 7.030-16.971 7.030zM152.005 529.917l89.081 124.72 266.479 184c1.258 0.847 2.731 1.319 4.246 1.362s3.011-0.347 4.314-1.122l266.8-184.24 89.079-124.72v-345.921h-112v296.001c0 6.364-2.528 12.469-7.028 16.969-4.502 4.502-10.607 7.030-16.971 7.030h-448c-6.366 0-12.471-2.528-16.971-7.030-4.5-4.5-7.030-10.605-7.030-16.969v-296.001h-111.999v345.921zM512.005 349.476l-149.12 106.52h298.24l-149.12-106.52zM712.004 433.476v-226.72l-158.72 113.241 158.72 113.48zM470.724 319.997l-158.72-113.36v226.72l158.72-113.36zM512.005 290.516l149.12-106.52h-298.24l149.12 106.52zM424.004 607.997c0 6.364 2.529 12.469 7.030 16.969 4.5 4.502 10.605 7.030 16.971 7.030h128c6.364 0 12.469-2.528 16.971-7.030 4.5-4.5 7.028-10.605 7.028-16.969 0-6.366-2.528-12.471-7.028-16.971-4.502-4.5-10.607-7.030-16.971-7.030h-128c-6.366 0-12.471 2.529-16.971 7.030s-7.030 10.605-7.030 16.971z" />
<glyph unicode="&#xe931;" glyph-name="pinterest-2" data-tags="pinterest-2" d="M525.911 960c-280.706-0.043-429.911-179.882-429.911-375.978 0-90.923 50.816-204.374 132.182-240.342 23.21-10.455 20.138 2.304 40.106 78.679 0.919 3.082 1 6.359 0.236 9.482-0.765 3.128-2.348 5.996-4.588 8.31-116.31 134.526-22.698 411.091 245.376 411.091 387.968 0 315.479-536.834 67.497-536.834-63.913 0-111.529 50.176-96.467 112.256 18.261 73.943 54.018 153.431 54.018 206.722 0 134.315-200.109 114.39-200.109-63.573 0-54.998 19.456-92.118 19.456-92.118s-64.384-260.096-76.33-308.695c-20.224-82.258 2.73-215.424 4.736-226.898 1.238-6.318 8.32-8.32 12.288-3.118 6.358 8.32 84.182 119.342 105.984 199.598 7.936 29.225 40.49 147.84 40.49 147.84 21.462-38.743 83.326-71.168 149.246-71.168 196.096 0 337.838 172.37 337.838 386.259-0.686 205.056-176.174 358.486-402.048 358.486z" />
<glyph unicode="&#xe932;" glyph-name="check-box-2" data-tags="check-box-2" d="M512 910.222c-91.419 0-180.785-27.109-256.796-77.899s-135.257-122.979-170.241-207.439c-34.984-84.46-44.138-177.397-26.303-267.059s61.858-172.021 126.5-236.663c64.643-64.643 147.003-108.669 236.666-126.504s182.602-8.681 267.059 26.305c84.463 34.981 156.649 94.225 207.44 170.24 50.79 76.009 77.898 165.376 77.898 256.796-0.131 122.549-48.868 240.042-135.526 326.698-86.653 86.655-204.146 135.395-326.696 135.525zM714.934 529.511l-248.889-248.889c-3.302-3.305-7.223-5.928-11.54-7.72-4.316-1.786-8.943-2.708-13.616-2.708s-9.299 0.922-13.615 2.708c-4.317 1.792-8.238 4.415-11.54 7.72l-106.667 106.667c-6.672 6.672-10.42 15.721-10.42 25.156s3.748 18.484 10.42 25.156c6.671 6.671 15.72 10.42 25.155 10.42s18.484-3.748 25.156-10.42l81.511-81.555 223.733 223.778c3.305 3.304 7.225 5.924 11.543 7.712s8.943 2.708 13.614 2.708c4.671 0 9.296-0.92 13.614-2.708s8.238-4.408 11.543-7.712c3.305-3.304 5.922-7.225 7.708-11.542 1.792-4.316 2.714-8.942 2.714-13.614s-0.922-9.298-2.714-13.614c-1.786-4.316-4.403-8.238-7.708-11.542z" />
<glyph unicode="&#xe933;" glyph-name="play-21" data-tags="play-2" horiz-adv-x="768" d="M607.469 447.999l-470.894 313.925v-627.862l470.894 313.937zM702.606 507.637c42.564-28.376 42.564-90.911 0-119.287l-556.996-371.334c-47.633-31.761-111.443 2.398-111.443 59.648v742.663c0 57.25 63.81 91.397 111.443 59.638l556.996-371.328z" />
<glyph unicode="&#xe936;" glyph-name="Balloon1" data-tags="Balloon" d="M512 888c-91.203-0.106-178.639-36.383-243.128-100.872s-100.766-151.925-100.872-243.128c0-92.001 36.96-194.081 98.839-273.080 49.48-63.16 108.92-105.679 172.201-124.28l-45.079-105.198c-1.562-3.651-2.194-7.629-1.841-11.581 0.353-3.95 1.682-7.754 3.866-11.067s5.156-6.034 8.648-7.918c3.492-1.882 7.398-2.87 11.366-2.875h192c3.968 0.005 7.875 0.993 11.366 2.875 3.492 1.884 6.464 4.605 8.648 7.918s3.512 7.117 3.866 11.067c0.353 3.953-0.279 7.931-1.841 11.581l-45.079 105.198c63.281 18.601 122.721 61.12 172.001 124.28 62.080 78.999 99.039 181.079 99.039 273.080-0.105 91.203-36.383 178.638-100.872 243.128s-151.926 100.766-243.128 100.872zM448.681 144l2.319-0.561c-0.796 0.074-1.58 0.261-2.319 0.561zM571.599 56h-119.199l34.798 81.239c16.494-1.654 33.108-1.654 49.603 0l34.798-81.239zM512 184c-134.080 0-296 160.599-296 360 0 78.505 31.186 153.792 86.697 209.304s130.798 86.696 209.303 86.696c78.505 0 153.792-31.186 209.303-86.696s86.697-130.799 86.697-209.304c0-199.401-161.92-360-296-360zM707.999 552.32c-1.324-0.205-2.66-0.312-3.999-0.32-5.668 0.005-11.151 2.017-15.478 5.678s-7.217 8.735-8.161 14.323c-6.193 34.954-22.976 67.164-48.082 92.262-25.106 25.101-57.321 41.876-92.278 48.056-6.282 1.061-11.884 4.573-15.575 9.764-3.689 5.191-5.166 11.635-4.106 17.916s4.572 11.882 9.764 15.573c5.192 3.691 11.635 5.168 17.915 4.107 44.746-7.949 85.97-29.443 118.103-61.578 32.136-32.133 53.629-73.357 61.578-118.103 0.527-3.108 0.438-6.292-0.266-9.367s-2.007-5.98-3.835-8.55c-1.828-2.573-4.145-4.756-6.817-6.431-2.675-1.677-5.65-2.808-8.763-3.331z" />
<glyph unicode="&#xe937;" glyph-name="Bicycle1" data-tags="Bicycle" d="M831.99 504c-24.448 0.018-48.655-4.851-71.199-14.321l-110.999 190.321h118.198c10.609 0 20.785-4.214 28.285-11.715 7.501-7.503 11.715-17.677 11.715-28.285 0-6.364 2.529-12.47 7.030-16.97s10.606-7.030 16.97-7.030c6.367 0 12.47 2.529 16.973 7.030 4.5 4.5 7.027 10.606 7.027 16.97 0 23.34-9.27 45.722-25.774 62.226-16.502 16.503-38.886 25.774-62.226 25.774h-160c-4.206-0.011-8.338-1.128-11.976-3.24-3.64-2.111-6.661-5.142-8.76-8.788-2.097-3.646-3.2-7.781-3.197-11.987 0.003-4.209 1.111-8.34 3.215-11.986l53.599-91.999h-248.44l-67.72 116c-2.099 3.639-5.12 6.663-8.755 8.769-3.638 2.106-7.762 3.22-11.965 3.231h-111.999c-6.365 0-12.47-2.529-16.97-7.030s-7.030-10.605-7.030-16.97c0-6.364 2.529-12.47 7.030-16.97s10.605-7.030 16.97-7.030h98.201l59.999-102.559-70.2-95.921c-41.158 22.592-89.371 28.677-134.853 17.021-45.482-11.653-84.826-40.177-110.047-79.78s-34.43-87.316-25.758-133.46c8.672-46.144 34.576-87.26 72.454-115.003 37.878-27.745 84.893-40.036 131.503-34.383s89.323 28.828 119.472 64.822c30.149 35.994 45.473 82.109 42.862 128.988-2.609 46.879-22.956 91.008-56.914 123.436l57.72 78.838 130.842-224c2.104-3.643 5.13-6.671 8.773-8.778 3.643-2.104 7.777-3.215 11.986-3.22 4.221 0.003 8.364 1.134 12.001 3.279 5.491 3.208 9.485 8.463 11.105 14.612s0.732 12.692-2.465 18.189l-128.282 219.999h248.44l50.519-86.641c-34.437-26.688-58.289-64.73-67.305-107.356-9.019-42.624-2.619-87.068 18.061-125.417 20.68-38.346 54.298-68.114 94.866-83.999 40.571-15.887 85.46-16.86 126.682-2.749s76.096 42.391 98.419 79.808c22.323 37.414 30.646 81.539 23.485 124.516-7.16 42.975-29.34 82.017-62.587 110.175-33.249 28.155-75.41 43.599-118.981 43.584zM327.99 320c0.005-29.527-9.597-58.253-27.361-81.838-17.761-23.585-42.719-40.75-71.097-48.901s-58.64-6.843-86.211 3.722c-27.571 10.568-50.954 29.819-66.617 54.851-15.663 25.029-22.755 54.474-20.204 83.891s14.605 57.203 34.343 79.163c19.738 21.96 46.086 36.9 75.064 42.563 28.978 5.665 59.012 1.743 85.565-11.169l-78.88-108.001c-3.756-5.146-5.313-11.571-4.33-17.864 0.983-6.295 4.425-11.94 9.571-15.695s11.571-5.315 17.865-4.332c6.294 0.983 11.939 4.426 15.695 9.572l78.8 107.999c24.269-25.257 37.816-58.931 37.798-93.96zM831.99 184c-27.786 0.061-54.886 8.63-77.655 24.558-22.771 15.926-40.115 38.446-49.7 64.527s-10.952 54.472-3.917 81.352c7.037 26.883 22.139 50.962 43.272 69.002l67.282-115.441c2.104-3.643 5.13-6.671 8.773-8.778 3.643-2.104 7.777-3.215 11.986-3.22 4.221 0.003 8.364 1.134 12.001 3.279 5.491 3.208 9.485 8.463 11.105 14.612s0.732 12.692-2.465 18.189l-67.441 115.64c18.657 6.825 38.584 9.482 58.378 7.78 19.796-1.702 38.976-7.721 56.195-17.633 17.219-9.91 32.059-23.473 43.471-39.734 11.415-16.264 19.128-34.829 22.595-54.39 3.469-19.564 2.611-39.647-2.516-58.842s-14.397-37.033-27.159-52.26c-12.762-15.227-28.705-27.474-46.707-35.876-18.004-8.404-37.629-12.762-57.498-12.767z" />
<glyph unicode="&#xe938;" glyph-name="City1" data-tags="City" d="M960 120h-40v488c0 6.364-2.529 12.47-7.030 16.97s-10.606 7.030-16.97 7.030h-256c-6.364 0-12.47-2.529-16.97-7.030s-7.030-10.606-7.030-16.97v-168h-208v360c0 6.365-2.529 12.47-7.030 16.97s-10.606 7.030-16.97 7.030h-256c-6.365 0-12.47-2.529-16.97-7.030s-7.030-10.605-7.030-16.97v-680h-40c-6.365 0-12.47-2.529-16.97-7.030s-7.030-10.606-7.030-16.97c0-6.364 2.529-12.47 7.030-16.97s10.605-7.030 16.97-7.030h896c6.364 0 12.47 2.529 16.97 7.030s7.030 10.606 7.030 16.97c0 6.364-2.529 12.47-7.030 16.97s-10.606 7.030-16.97 7.030zM664 584h208v-464h-208v464zM616 392v-272h-208v272h208zM152 776h208v-656h-208v656zM280 672v-64c0-6.364-2.529-12.47-7.030-16.97s-10.606-7.030-16.97-7.030c-6.365 0-12.47 2.529-16.97 7.030s-7.030 10.606-7.030 16.97v64c0 6.364 2.529 12.47 7.030 16.97s10.605 7.030 16.97 7.030c6.364 0 12.47-2.529 16.97-7.030s7.030-10.606 7.030-16.97zM280 480v-64c0-6.364-2.529-12.47-7.030-16.97s-10.606-7.030-16.97-7.030c-6.365 0-12.47 2.529-16.97 7.030s-7.030 10.606-7.030 16.97v64c0 6.364 2.529 12.47 7.030 16.97s10.605 7.030 16.97 7.030c6.364 0 12.47-2.529 16.97-7.030s7.030-10.606 7.030-16.97zM280 288v-64c0-6.364-2.529-12.47-7.030-16.97s-10.606-7.030-16.97-7.030c-6.365 0-12.47 2.529-16.97 7.030s-7.030 10.606-7.030 16.97v64c0 6.364 2.529 12.47 7.030 16.97s10.605 7.030 16.97 7.030c6.364 0 12.47-2.529 16.97-7.030s7.030-10.606 7.030-16.97zM488 224v64c0 6.364 2.529 12.47 7.030 16.97s10.606 7.030 16.97 7.030c6.364 0 12.47-2.529 16.97-7.030s7.030-10.606 7.030-16.97v-64c0-6.364-2.529-12.47-7.030-16.97s-10.606-7.030-16.97-7.030c-6.364 0-12.47 2.529-16.97 7.030s-7.030 10.606-7.030 16.97zM744 224v64c0 6.364 2.529 12.47 7.030 16.97s10.606 7.030 16.97 7.030c6.364 0 12.47-2.529 16.97-7.030s7.030-10.606 7.030-16.97v-64c0-6.364-2.529-12.47-7.030-16.97s-10.606-7.030-16.97-7.030c-6.364 0-12.47 2.529-16.97 7.030s-7.030 10.606-7.030 16.97zM744 416v64c0 6.364 2.529 12.47 7.030 16.97s10.606 7.030 16.97 7.030c6.364 0 12.47-2.529 16.97-7.030s7.030-10.606 7.030-16.97v-64c0-6.364-2.529-12.47-7.030-16.97s-10.606-7.030-16.97-7.030c-6.364 0-12.47 2.529-16.97 7.030s-7.030 10.606-7.030 16.97z" />
<glyph unicode="&#xe939;" glyph-name="PersonSimpleHike1" data-tags="PersonSimpleHike" d="M607.995 648c23.734 0 46.935 7.037 66.668 20.224 19.735 13.187 35.116 31.926 44.198 53.854 9.080 21.927 11.459 46.055 6.828 69.333s-16.059 44.66-32.842 61.442c-16.781 16.782-38.164 28.211-61.44 32.841-23.278 4.63-47.406 2.254-69.335-6.829-21.926-9.082-40.668-24.463-53.852-44.197-13.187-19.734-20.224-42.935-20.224-66.668 0-31.826 12.641-62.349 35.146-84.854 22.505-22.502 53.028-35.146 84.854-35.146zM607.995 840c14.239 0 28.16-4.223 40-12.134s21.069-19.156 26.519-32.313c5.45-13.156 6.876-27.633 4.096-41.6-2.778-13.967-9.636-26.796-19.704-36.865s-22.899-16.926-36.864-19.706c-13.967-2.778-28.444-1.352-41.6 4.099-13.156 5.449-24.402 14.678-32.312 26.518-7.913 11.84-12.134 25.761-12.134 40.001 0 19.096 7.585 37.409 21.087 50.912 13.504 13.502 31.818 21.088 50.913 21.088zM791.995 384v-352c0-6.364-2.529-12.47-7.030-16.97s-10.606-7.030-16.97-7.030c-6.367 0-12.47 2.529-16.97 7.030-4.503 4.5-7.030 10.606-7.030 16.97v328.76c-104.922 6.92-139.041 59.558-169.4 106.36-13.722 21.199-26.721 41.239-46.001 58.079l-60.6-139.64 154.081-110.039c3.082-2.235 5.591-5.169 7.314-8.563 1.725-3.395 2.619-7.15 2.606-10.957v-224c0-6.364-2.529-12.47-7.030-16.97s-10.606-7.030-16.97-7.030c-6.367 0-12.47 2.529-16.97 7.030-4.503 4.5-7.030 10.606-7.030 16.97v211.64l-135.68 96.919-138.322-318.118c-2.665-5.632-7.419-10.004-13.251-12.196-5.832-2.189-12.288-2.025-18.002 0.458s-10.24 7.091-12.618 12.849c-2.378 5.757-2.424 12.216-0.128 18.007l230.001 529.28c1.308 3.013 3.223 5.722 5.624 7.964 2.399 2.243 5.233 3.968 8.325 5.069 3.095 1.103 6.382 1.559 9.656 1.339 3.277-0.218 6.474-1.106 9.393-2.611 10.995-5.704 21.266-12.7 30.6-20.841 24.602-21.358 40-45.32 55.16-68.518 31.002-47.601 55.401-85.24 153.242-85.24 6.364 0 12.47-2.529 16.97-7.030s7.030-10.606 7.030-16.97zM287.995 360c4.7-0.003 9.3 1.375 13.225 3.963 3.927 2.591 7.004 6.275 8.855 10.596l96 224c1.242 2.9 1.9 6.016 1.935 9.17s-0.548 6.285-1.723 9.211c-1.175 2.929-2.913 5.596-5.12 7.849-2.204 2.255-4.833 4.052-7.734 5.292l-112 48c-5.85 2.493-12.452 2.565-18.355 0.195s-10.623-6.986-13.124-12.836l-96-224c-2.497-5.844-2.573-12.442-0.211-18.345 2.362-5.901 6.969-10.624 12.81-13.133l111.999-48c2.982-1.285 6.193-1.953 9.441-1.961zM207.514 444.6l77.081 179.999 67.999-29.079-77.079-180.001-68.001 29.082z" />
<glyph unicode="&#xe93a;" glyph-name="ForkKnife1" data-tags="ForkKnife" d="M296 608v192c0 6.365 2.529 12.47 7.030 16.971s10.606 7.029 16.97 7.029c6.364 0 12.47-2.529 16.97-7.029s7.030-10.606 7.030-16.971v-192c0-6.364-2.529-12.47-7.030-16.97s-10.606-7.030-16.97-7.030c-6.364 0-12.47 2.529-16.97 7.030s-7.030 10.606-7.030 16.97zM856 800v-736c0-6.364-2.529-12.47-7.030-16.97s-10.606-7.030-16.97-7.030c-6.364 0-12.47 2.529-16.97 7.030s-7.030 10.606-7.030 16.97v200h-200c-6.364 0-12.47 2.529-16.97 7.030s-7.030 10.606-7.030 16.97c0 17.641 2.721 433 238.561 534.040 3.648 1.561 7.626 2.193 11.579 1.839 3.95-0.354 7.754-1.682 11.067-3.866s6.034-5.155 7.918-8.647c1.882-3.493 2.87-7.398 2.875-11.366zM808 760c-147.159-97.16-171.279-365.919-175.24-448h175.24v448zM471.68 804c-0.525 3.11-1.659 6.086-3.333 8.758s-3.86 4.988-6.431 6.815c-2.57 1.828-5.476 3.131-8.55 3.836s-6.257 0.797-9.364 0.272c-3.11-0.525-6.088-1.658-8.758-3.333-2.673-1.676-4.989-3.861-6.817-6.431-1.825-2.57-3.131-5.475-3.835-8.549s-0.796-6.257-0.271-9.367l31.68-189.92c0-36.070-14.328-70.661-39.834-96.166s-60.096-39.834-96.166-39.834c-36.070 0-70.662 14.328-96.166 39.834s-39.834 60.096-39.834 96.166l31.68 189.92c1.061 6.28-0.417 12.725-4.107 17.916s-9.292 8.703-15.573 9.764c-6.28 1.061-12.725-0.417-17.916-4.107s-8.703-9.292-9.764-15.573l-32-191.999c-0.208-1.324-0.315-2.662-0.32-4.001 0.058-44.623 16.309-87.711 45.736-121.257s70.029-55.273 114.264-61.143v-361.6c0-6.364 2.529-12.47 7.030-16.97s10.606-7.030 16.97-7.030c6.364 0 12.47 2.529 16.97 7.030s7.030 10.606 7.030 16.97v361.6c44.237 5.87 84.838 27.597 114.263 61.143 29.427 33.546 45.678 76.634 45.737 121.257-0.005 1.339-0.113 2.678-0.32 4.001l-32 191.999z" />
<glyph unicode="&#xe93b;" glyph-name="Frame1" data-tags="Frame" d="M1023.050 884.728c3.482 22.050-2.742 42.919-17.075 57.253-14.331 14.33-35.203 20.552-57.234 17.074-216.558-34.173-427.077-149.825-595.379-310.746l-46.638 46.638c26.286 44.51 20.326 102.935-17.876 141.135l-96.951 96.954c-31.229 31.229-82.043 31.225-113.268 0l-51.665-51.663c-15.128-15.128-23.459-35.241-23.459-56.635s8.332-41.509 23.459-56.633l96.952-96.953c21.926-21.929 51.079-34.002 82.087-34.002 20.74 0 40.635 5.425 58.102 15.56l46.845-46.845c-160.532-168.169-275.88-378.371-310.005-594.591-3.48-22.049 2.744-42.918 17.076-57.252 11.722-11.722 27.813-18.022 45.351-18.022 3.9 0 7.874 0.312 11.882 0.945 216.227 34.122 426.434 149.471 594.608 310.008l46.868-46.866c-25.638-44.39-19.512-102.241 18.417-140.17l96.955-96.952c15.613-15.616 36.124-23.424 56.632-23.424 20.513 0 41.024 7.808 56.635 23.424l51.666 51.663c31.224 31.227 31.224 82.040-0.003 113.27l-96.955 96.952c-38.2 38.203-96.627 44.16-141.138 17.876l-46.636 46.638c160.919 168.3 276.57 378.811 310.746 595.364zM958.095 899.79c1.032 0.162 1.91 0.22 2.642 0.22 1.728 0 2.634-0.332 2.772-0.412 0.2-0.28 0.824-2.032 0.276-5.514-10.836-68.661-30.497-137.532-58.668-205.774-14.287 33.007-34.135 62.552-59.021 87.436-27.661 27.661-60.897 49.045-98.278 63.505 69.714 29.172 140.106 49.465 210.276 60.539zM648.389 791.364c4.69 2.556 9.398 5.078 14.124 7.566 56.266-6.862 105.042-29.495 141.158-65.611 33.4-33.398 54.717-76.016 63.483-126.712-3.848-7.452-7.782-14.863-11.799-22.226-49.354-90.381-111.721-175.191-185.549-252.513l-52.273 52.273 57.231 57.234c22.454 22.451 34.816 52.396 34.816 84.316 0 31.918-12.365 61.862-34.816 84.311l-0.783 0.786c-22.454 22.451-52.396 34.816-84.314 34.816-31.921 0-61.865-12.367-84.316-34.816l-57.231-57.234-52.255 52.252c77.325 73.836 162.138 136.205 252.524 185.558zM490.545 511.127l57.231 57.234c11.548 11.548 26.719 17.321 41.889 17.321 15.168 0 30.339-5.773 41.887-17.321l0.783-0.783c23.096-23.099 23.096-60.68 0-83.779l-57.231-57.234-84.559 84.562zM532.68 384.138l-56.468-56.466c-23.096-23.099-60.68-23.096-83.789 0.013l-0.773 0.771c-23.096 23.099-23.096 60.68 0 83.779l56.468 56.466 84.562-84.562zM206.005 697.149c-14.982 0-29.066 5.834-39.661 16.43l-96.954 96.956c-1.872 1.861-3.355 4.075-4.365 6.514s-1.526 5.053-1.519 7.693c-0.007 2.64 0.509 5.255 1.519 7.693s2.494 4.653 4.365 6.515l51.663 51.663c3.794 3.794 8.84 5.884 14.208 5.884s10.414-2.090 14.208-5.884l96.954-96.954c21.869-21.87 21.869-57.453 0.014-79.307l-0.772-0.77c-10.594-10.597-24.679-16.432-39.661-16.432zM65.905-3.786c-3.472-0.548-5.218 0.077-5.416 0.192-0.198 0.282-0.826 2.035-0.276 5.519 10.814 68.518 30.415 137.249 58.493 205.358 14.256-32.573 33.943-61.752 58.543-86.351 27.951-27.953 61.601-49.49 99.464-63.956-69.888-29.292-140.459-49.661-210.808-60.762zM375.608 104.637c-4.396-2.394-8.806-4.759-13.235-7.096-56.922 6.63-106.25 29.368-142.698 65.815-33.069 33.065-54.297 75.208-63.225 125.276 3.976 7.711 8.041 15.375 12.194 22.991 49.189 90.079 111.307 174.623 184.812 251.735l52.234-52.234-56.468-56.466c-22.451-22.454-34.816-52.396-34.816-84.316 0-31.918 12.367-61.862 34.831-84.326l0.771-0.771c22.454-22.451 52.396-34.816 84.316-34.816 31.918 0 61.862 12.365 84.314 34.816l56.468 56.466 52.252-52.252c-77.117-73.508-161.664-135.631-251.75-184.822zM817.994 198.825c14.362 0 28.726-5.468 39.66-16.399l96.952-96.955c7.834-7.834 7.834-20.58 0.003-28.416l-51.663-51.663c-7.834-7.831-20.577-7.831-28.416 0l-96.955 96.955c-21.868 21.87-21.868 57.454 0 79.324l0.758 0.755c10.936 10.934 25.295 16.399 39.662 16.399z" />
<glyph unicode="&#xe93c;" glyph-name="CastleTurret1" data-tags="CastleTurret" d="M864 88h-72v414.039l47.601 47.642c5.212 5.181 9.347 11.346 12.16 18.138 2.816 6.789 4.257 14.070 4.239 21.422v178.76c0 14.852-5.901 29.096-16.402 39.598s-24.745 16.402-39.598 16.402h-96c-6.364 0-12.47-2.529-16.97-7.030s-7.030-10.605-7.030-16.97v-104h-80v104c0 6.365-2.529 12.47-7.030 16.97s-10.606 7.030-16.97 7.030h-128c-6.364 0-12.47-2.529-16.97-7.030s-7.030-10.605-7.030-16.97v-104h-80v104c0 6.365-2.529 12.47-7.030 16.97s-10.606 7.030-16.97 7.030h-96c-14.852 0-29.096-5.9-39.598-16.402s-16.402-24.746-16.402-39.598v-178.76c-0.017-7.352 1.423-14.633 4.238-21.422 2.815-6.792 6.949-12.956 12.162-18.138l47.6-47.642v-414.039h-72c-6.365 0-12.47-2.529-16.97-7.030s-7.030-10.606-7.030-16.97c0-6.364 2.529-12.47 7.030-16.97s10.605-7.030 16.97-7.030h704c6.364 0 12.47 2.529 16.97 7.030s7.030 10.606 7.030 16.97c0 6.364-2.529 12.47-7.030 16.97s-10.606 7.030-16.97 7.030zM272.96 528.96l-54.64 54.641c-1.488 1.5-2.322 3.528-2.32 5.64v178.76c0 2.122 0.843 4.157 2.343 5.657s3.535 2.343 5.657 2.343h72v-104c0-6.364 2.529-12.47 7.030-16.97s10.606-7.030 16.97-7.030h128c6.364 0 12.47 2.529 16.97 7.030s7.030 10.606 7.030 16.97v104h80v-104c0-6.364 2.529-12.47 7.030-16.97s10.606-7.030 16.97-7.030h128c6.364 0 12.47 2.529 16.97 7.030s7.030 10.606 7.030 16.97v104h72c2.122 0 4.157-0.843 5.658-2.343s2.342-3.535 2.342-5.657v-178.76c0.003-2.112-0.832-4.14-2.319-5.64l-54.641-54.641c-4.503-4.495-7.035-10.596-7.040-16.96v-424h-112v200c0 31.826-12.644 62.349-35.146 84.854-22.505 22.502-53.028 35.146-84.854 35.146s-62.349-12.644-84.854-35.146c-22.502-22.505-35.146-53.028-35.146-84.854v-200h-112v424c-0.005 6.364-2.537 12.465-7.040 16.96zM584 88h-144v200c0 19.095 7.585 37.409 21.089 50.911 13.501 13.504 31.816 21.089 50.911 21.089s37.409-7.585 50.911-21.089c13.504-13.501 21.089-31.816 21.089-50.911v-200z" />
<glyph unicode="&#xe93d;" glyph-name="TreeEvergreen1" data-tags="TreeEvergreen" d="M914.964 206.72l-193.879 249.28h110.92c4.483-0.005 8.881 1.247 12.69 3.615 3.807 2.365 6.879 5.752 8.86 9.777 1.981 4.022 2.798 8.52 2.353 12.982-0.443 4.462-2.127 8.712-4.864 12.265l-320 416.001c-2.24 2.92-5.123 5.286-8.425 6.914s-6.932 2.475-10.614 2.475c-3.681 0-7.314-0.847-10.616-2.475-3.3-1.628-6.182-3.994-8.425-6.914l-319.999-416.001c-2.736-3.553-4.421-7.803-4.865-12.265s0.372-8.96 2.354-12.982c1.982-4.024 5.052-7.411 8.861-9.777 3.809-2.368 8.205-3.62 12.69-3.615h110.92l-193.881-249.28c-2.755-3.548-4.459-7.798-4.918-12.265-0.46-4.47 0.344-8.978 2.319-13.010 1.976-4.035 5.043-7.434 8.854-9.81 3.811-2.378 8.213-3.638 12.705-3.635h360.001v-168c0-6.367 2.527-12.47 7.030-16.973 4.5-4.5 10.604-7.027 16.97-7.027 6.364 0 12.47 2.527 16.97 7.027 4.5 4.503 7.030 10.606 7.030 16.973v168h360c4.49-0.003 8.893 1.257 12.703 3.635 3.812 2.376 6.879 5.775 8.855 9.81 1.976 4.032 2.78 8.54 2.319 13.010-0.458 4.467-2.163 8.717-4.918 12.265zM177.084 216l193.88 249.28c2.755 3.546 4.46 7.795 4.918 12.265 0.461 4.467-0.343 8.975-2.319 13.010-1.976 4.032-5.043 7.432-8.855 9.807-3.809 2.378-8.212 3.638-12.703 3.638h-111.241l271.241 352.639 271.24-352.639h-111.24c-4.493 0-8.893-1.26-12.705-3.638-3.812-2.376-6.879-5.775-8.855-9.807-1.974-4.035-2.778-8.543-2.319-13.010 0.461-4.47 2.163-8.719 4.918-12.265l193.882-249.28h-669.841z" />
<glyph unicode="&#xe93e;" glyph-name="twitter2" data-tags="twitter" d="M607.315 526.406l373.011 433.594h-88.39l-323.887-376.484-258.686 376.484h-298.363l391.184-569.31-391.184-454.69h88.396l342.031 397.58 273.19-397.58h298.362l-405.664 590.406zM486.244 385.674l-354.997 507.782h135.772l624.956-893.937h-135.77l-269.961 386.154z" />
<glyph unicode="&#xe93f;" glyph-name="search2" data-tags="search" horiz-adv-x="1075" d="M527.058 800c-188.278 0-340.908-152.63-340.908-340.908 0-188.275 152.63-340.908 340.908-340.908s340.905 152.632 340.905 340.908c0 188.278-152.627 340.908-340.905 340.908zM122.15 459.092c0 223.624 181.284 404.908 404.908 404.908 223.621 0 404.905-181.284 404.905-404.908s-181.284-404.908-404.905-404.908c-223.624 0-404.908 181.284-404.908 404.908zM772.803 213.356c12.498 12.493 32.758 12.493 45.256 0l126.72-126.72c12.493-12.498 12.493-32.758 0-45.256-12.498-12.498-32.758-12.498-45.256 0l-126.72 126.72c-12.498 12.498-12.498 32.758 0 45.256z" />
<glyph unicode="&#xe941;" glyph-name="shopcart1" data-tags="shopcart" d="M512 949.333c-124.65 0-227.575-92.949-243.264-213.333h-28.27c-42.483 0.001-77.712 0.003-105.36-3.861-29.066-4.061-55.184-13.029-75.047-35.22s-25.891-49.14-26.718-78.477c-0.786-27.906 3.105-62.92 7.798-105.14l13.137-118.23c9.815-88.338 17.523-157.72 30.615-211.639 13.42-55.273 33.378-98.406 70.432-131.573 37.089-33.195 82.379-48.253 139.1-55.472 55.378-7.054 125.699-7.054 215.294-7.054h4.565c89.593 0 159.914 0 215.289 7.054 56.724 7.219 102.013 22.278 139.105 55.472 37.052 33.166 57.008 76.299 70.428 131.573 13.096 53.919 20.804 123.301 30.618 211.635l13.141 118.234c4.688 42.22 8.579 77.235 7.794 105.14-0.831 29.336-6.855 56.285-26.721 78.477-19.86 22.192-45.978 31.16-75.042 35.22-27.648 3.864-62.879 3.862-105.364 3.861h-28.268c-15.69 120.381-118.619 213.333-243.263 213.333zM512 885.333c89.23 0 163.408-64.455 178.523-149.333h-357.045c15.107 84.877 89.294 149.333 178.522 149.333zM107.747 654.236c5.577 6.231 14.426 11.474 36.215 14.519 22.696 3.171 53.415 3.245 98.865 3.245h538.342c45.449 0 76.169-0.074 98.862-3.245 21.794-3.045 30.64-8.288 36.215-14.519 5.581-6.231 9.819-15.605 10.433-37.597 0.649-22.907-2.668-53.447-7.691-98.619l-12.618-113.604c-10.126-91.112-17.442-156.409-29.457-205.885-11.793-48.589-27.227-77.773-50.921-98.981-23.66-21.174-54.511-33.308-104.505-39.674-50.864-6.485-117.117-6.542-209.488-6.542-92.376 0-158.623 0.057-209.49 6.542-49.995 6.366-80.844 18.5-104.503 39.674-23.695 21.208-39.125 50.392-50.922 98.981-12.013 49.476-19.329 114.773-29.453 205.885l-12.623 113.604c-5.019 45.172-8.338 75.712-7.693 98.619 0.62 21.992 4.854 31.366 10.431 37.597z" />
<glyph unicode="&#xe944;" glyph-name="fb1" data-tags="fb" horiz-adv-x="640" d="M558 384h-150v-448h-200v448h-164v184h164v142c0 160 96 250 242 250 70 0 144-14 144-14v-158h-82c-80 0-104-48-104-100v-120h178l-28-184z" />
<glyph unicode="&#xe945;" glyph-name="search3" data-tags="search" d="M471.040 222.72c-147.456 0-266.24 118.784-266.24 266.24s118.784 266.24 266.24 266.24 266.24-118.784 266.24-266.24-118.784-266.24-266.24-266.24zM471.040 714.24c-124.928 0-225.28-100.352-225.28-225.28s100.352-225.28 225.28-225.28 225.28 100.352 225.28 225.28-100.352 225.28-225.28 225.28zM669.327 319.652l183.91-183.91-28.959-28.959-183.91 183.91z" />
<glyph unicode="&#xe946;" glyph-name="close1" data-tags="close" d="M512 533.197l-362.035 362.035-72.397-72.397 362.035-362.035-362.035-362.035 72.397-72.397 362.035 362.035 362.035-362.035 72.397 72.397-362.035 362.035 362.035 362.035-72.397 72.397-362.035-362.035z" />
<glyph unicode="&#xe947;" glyph-name="youtube-play1" data-tags="youtube-play" d="M406.286 306.286l276.571 142.857-276.571 144.571v-287.429zM512 798.857c215.429 0 358.286-10.286 358.286-10.286 20-2.286 64-2.286 102.857-43.429 0 0 31.429-30.857 40.571-101.714 10.857-82.857 10.286-165.714 10.286-165.714v-77.714s0.571-82.857-10.286-165.714c-9.143-70.286-40.571-101.714-40.571-101.714-38.857-40.571-82.857-40.571-102.857-42.857 0 0-142.857-10.857-358.286-10.857v0c-266.286 2.286-348 10.286-348 10.286-22.857 4-74.286 2.857-113.143 43.429 0 0-31.429 31.429-40.571 101.714-10.857 82.857-10.286 165.714-10.286 165.714v77.714s-0.571 82.857 10.286 165.714c9.143 70.857 40.571 101.714 40.571 101.714 38.857 41.143 82.857 41.143 102.857 43.429 0 0 142.857 10.286 358.286 10.286v0z" />
<glyph unicode="&#xe948;" glyph-name="location1" data-tags="location" d="M512 448.667q44 0 75 31t31 75-31 75-75 31-75-31-31-75 31-75 75-31zM512 852.667q124 0 211-87t87-211q0-62-31-142t-75-150-87-131-73-97l-32-34q-12 14-32 37t-72 92-91 134-71 147-32 144q0 124 87 211t211 87z" />
<glyph unicode="&#xe94a;" glyph-name="send1" data-tags="send" d="M86 42.667v298l640 86-640 86v298l896-384z" />
<glyph unicode="&#xe94b;" glyph-name="flash1" data-tags="flash" horiz-adv-x="640" d="M635.373 565.156c-1.86 3.283-4.559 6.014-7.82 7.914s-6.966 2.902-10.74 2.902h-279.467l46.854 357.989c0.502 4.791-0.621 9.612-3.192 13.687s-6.437 7.165-10.978 8.775c-4.54 1.61-9.491 1.645-14.053 0.099s-8.472-4.582-11.1-8.62l-339.861-595.424c-1.987-3.233-3.077-6.937-3.155-10.731s0.856-7.54 2.707-10.852c1.851-3.312 4.553-6.070 7.826-7.991s6.999-2.931 10.793-2.931h275.291l-37.131-358.528c-0.365-4.774 0.878-9.536 3.53-13.523s6.561-6.976 11.106-8.48c4.545-1.51 9.463-1.459 13.974 0.154 4.51 1.606 8.353 4.678 10.916 8.723l334.245 595.359c1.939 3.237 2.983 6.931 3.028 10.704s-0.912 7.491-2.772 10.773z" />
<glyph unicode="&#xe94c;" glyph-name="arrow-top-right1" data-tags="arrow-top-right" d="M853.76 836.25h-592.159c-8.487 0-16.626-3.372-22.627-9.373s-9.373-14.14-9.373-22.627c0-8.487 3.371-16.627 9.373-22.627s14.141-9.373 22.627-9.373h529.41l-656.61-656.641c-3.174-2.918-5.725-6.451-7.499-10.386s-2.735-8.185-2.824-12.493c-0.089-4.315 0.694-8.602 2.304-12.603 1.609-4.008 4.012-7.643 7.062-10.693s6.686-5.449 10.688-7.058c4.002-1.609 8.289-2.392 12.602-2.304s8.564 1.046 12.496 2.823c3.932 1.777 7.465 4.323 10.387 7.497l656.64 656.641v-529.439c0-8.492 3.372-16.625 9.37-22.63 6.005-5.998 14.146-9.37 22.63-9.37s16.625 3.372 22.63 9.37c5.998 6.005 9.37 14.139 9.37 22.63v592.127c-0.015 12.329-4.923 24.149-13.634 32.87-8.719 8.721-20.531 13.632-32.863 13.658z" />
<glyph unicode="&#xe94d;" glyph-name="shopping-cart1" data-tags="shopping-cart" horiz-adv-x="951" d="M365.714 73.143c0-40-33.143-73.143-73.143-73.143s-73.143 33.143-73.143 73.143 33.143 73.143 73.143 73.143 73.143-33.143 73.143-73.143zM877.714 73.143c0-40-33.143-73.143-73.143-73.143s-73.143 33.143-73.143 73.143 33.143 73.143 73.143 73.143 73.143-33.143 73.143-73.143zM950.857 694.857v-292.571c0-18.286-14.286-34.286-32.571-36.571l-596.571-69.714c2.857-13.143 7.429-26.286 7.429-40 0-13.143-8-25.143-13.714-36.571h525.714c20 0 36.571-16.571 36.571-36.571s-16.571-36.571-36.571-36.571h-585.143c-20 0-36.571 16.571-36.571 36.571 0 17.714 25.714 60.571 34.857 78.286l-101.143 470.286h-116.571c-20 0-36.571 16.571-36.571 36.571s16.571 36.571 36.571 36.571h146.286c38.286 0 39.429-45.714 45.143-73.143h686.286c20 0 36.571-16.571 36.571-36.571z" />
<glyph unicode="&#xe94e;" glyph-name="star1" data-tags="star" d="M1024 564.365l-372.077 24.462-140.127 352.032-140.126-352.032-371.67-24.462 285.068-242.052-93.544-367.178 320.272 202.438 320.275-202.438-93.542 367.178 285.472 242.052z" />
<glyph unicode="&#xe950;" glyph-name="instagram1" data-tags="instagram" d="M809.662 770.522c-13.706 0-24.86-11.154-24.86-24.86s11.154-24.86 24.86-24.86c13.708 0 24.86 11.152 24.86 24.86s-11.152 24.86-24.86 24.86zM512 668.392c-121.524 0-220.392-98.868-220.392-220.392s98.868-220.394 220.392-220.394c121.526 0 220.394 98.868 220.394 220.392s-98.868 220.394-220.394 220.394zM743.286 960h-462.572c-154.786 0-280.714-125.928-280.714-280.716v-462.57c0-154.788 125.928-280.714 280.714-280.714h462.572c154.788 0 280.714 125.928 280.714 280.714v462.57c0 154.788-125.926 280.716-280.714 280.716zM512 167.136c-154.87 0-280.862 125.994-280.862 280.864s125.994 280.86 280.862 280.86 280.864-125.992 280.864-280.86-125.996-280.864-280.864-280.864zM809.662 660.328c-47.052 0-85.332 38.28-85.332 85.332s38.28 85.334 85.332 85.334c47.052 0 85.332-38.28 85.332-85.332s-38.28-85.334-85.332-85.334z" />
<glyph unicode="&#xe955;" glyph-name="notification1" data-tags="notification" d="M880.087 256.048c-3.318 3.999-6.579 7.997-9.779 11.858-44.001 53.222-70.62 85.34-70.62 236.001 0 78-18.657 142-55.439 190-27.121 35.46-63.78 62.36-112.097 82.24-0.625 0.346-1.178 0.8-1.644 1.34-17.377 58.2-64.937 97.18-118.579 97.18-53.64 0-101.18-38.98-118.56-97.12-0.464-0.52-1.012-0.959-1.62-1.3-112.76-46.42-167.56-135.48-167.56-272.28 0-150.721-26.58-182.838-70.62-235.999-3.2-3.86-6.46-7.782-9.78-11.863-8.576-10.342-14.010-22.922-15.658-36.255-1.648-13.338 0.558-26.865 6.358-38.984 12.34-25.999 38.64-42.138 68.66-42.138h617.782c29.88 0 55.997 16.118 68.378 41.999 5.827 12.119 8.054 25.661 6.42 39.009-1.638 13.348-7.066 25.948-15.642 36.311zM511.988-21.333c28.899 0.026 57.258 7.869 82.060 22.702 24.801 14.838 45.128 36.106 58.819 61.558 0.645 1.219 0.968 2.586 0.927 3.963-0.041 1.382-0.435 2.729-1.147 3.907-0.712 1.183-1.72 2.161-2.918 2.836-1.203 0.681-2.56 1.034-3.942 1.034h-267.557c-1.381 0.005-2.741-0.348-3.945-1.024s-2.213-1.654-2.928-2.836c-0.715-1.183-1.112-2.529-1.151-3.912-0.039-1.377 0.279-2.744 0.925-3.968 13.69-25.446 34.013-46.715 58.812-61.553 24.799-14.833 53.151-22.682 82.048-22.707z" />
<glyph unicode="&#xe957;" glyph-name="calendar1" data-tags="calendar" d="M224 960c17.673 0 32-14.327 32-32v0-32h512v32c0 17.673 14.327 32 32 32s32-14.327 32-32v0-32h64c70.692 0 128-57.308 128-128v0-704c0-70.692-57.308-128-128-128v0h-768c-70.692 0-128 57.308-128 128v0 576h1024v64h-1024v64c0 70.692 57.308 128 128 128v0h64v32c0 17.673 14.327 32 32 32v0z" />
<glyph unicode="&#xe958;" glyph-name="user2" data-tags="user" d="M512 412.672c127.488 0 248.832-27.136 363.52-81.408 22.016-10.24 36.352-32.768 36.352-57.344v-173.568c0-4.096-3.584-7.68-7.68-8.192h-784.384c-4.096 0-7.68 3.584-8.192 7.68v173.056c0 24.576 14.336 47.104 36.352 57.856 114.176 54.784 238.080 82.432 364.032 81.92zM512 828.928c61.44 0 118.272-32.768 148.992-86.016s30.72-118.784 0-172.032c-30.72-53.248-87.552-86.016-148.992-86.016-95.232 0-172.032 76.8-172.032 172.032s76.8 172.032 172.032 172.032z" />
<glyph unicode="&#xe959;" glyph-name="share-alt1" data-tags="share-alt" horiz-adv-x="878" d="M694.857 365.714c101.143 0 182.857-81.714 182.857-182.857s-81.714-182.857-182.857-182.857-182.857 81.714-182.857 182.857c0 6.286 0.571 13.143 1.143 19.429l-205.714 102.857c-32.571-30.286-76.571-49.143-124.571-49.143-101.143 0-182.857 81.714-182.857 182.857s81.714 182.857 182.857 182.857c48 0 92-18.857 124.571-49.143l205.714 102.857c-0.571 6.286-1.143 13.143-1.143 19.429 0 101.143 81.714 182.857 182.857 182.857s182.857-81.714 182.857-182.857-81.714-182.857-182.857-182.857c-48 0-92 18.857-124.571 49.143l-205.714-102.857c0.571-6.286 1.143-13.143 1.143-19.429s-0.571-13.143-1.143-19.429l205.714-102.857c32.571 30.286 76.571 49.143 124.571 49.143z" />
<glyph unicode="&#xe95f;" glyph-name="heart-o1" data-tags="heart-o" d="M950.857 610.286c0 160.571-108.571 194.286-200 194.286-85.143 0-181.143-92-210.857-127.429-13.714-16.571-42.286-16.571-56 0-29.714 35.429-125.714 127.429-210.857 127.429-91.429 0-200-33.714-200-194.286 0-104.571 105.714-201.714 106.857-202.857l332-320 331.429 319.429c1.714 1.714 107.429 98.857 107.429 203.429zM1024 610.286c0-137.143-125.714-252-130.857-257.143l-356-342.857c-6.857-6.857-16-10.286-25.143-10.286s-18.286 3.429-25.143 10.286l-356.571 344c-4.571 4-130.286 118.857-130.286 256 0 167.429 102.286 267.429 273.143 267.429 100 0 193.714-78.857 238.857-123.429 45.143 44.571 138.857 123.429 238.857 123.429 170.857 0 273.143-100 273.143-267.429z" />
<glyph unicode="&#xe960;" glyph-name="Users1" data-tags="Users" d="M468.98 328.325c42.888 28.549 75.45 70.144 92.868 118.636 17.418 48.489 18.77 101.297 3.855 150.614s-45.302 92.525-86.674 123.235c-41.371 30.71-91.526 47.29-143.049 47.29s-101.678-16.581-143.049-47.29c-41.371-30.71-71.76-73.918-86.675-123.235s-13.563-102.125 3.856-150.614c17.419-48.492 49.98-90.086 92.868-118.636-77.581-28.595-143.836-81.505-188.88-150.84-2.367-3.523-4.012-7.475-4.838-11.633-0.826-4.163-0.817-8.443 0.027-12.6s2.505-8.1 4.888-11.612c2.383-3.507 5.439-6.508 8.991-8.822 3.552-2.319 7.529-3.907 11.7-4.675 4.171-0.763 8.453-0.691 12.596 0.21s8.066 2.621 11.54 5.053c3.474 2.432 6.43 5.53 8.695 9.114 29.055 44.692 68.814 81.413 115.665 106.834s99.311 38.738 152.614 38.738c53.304 0 105.763-13.317 152.614-38.738s86.612-62.141 115.668-106.834c4.69-6.973 11.94-11.822 20.183-13.496 8.238-1.669 16.804-0.036 23.849 4.562 7.040 4.593 11.991 11.771 13.783 19.983 1.787 8.218 0.276 16.804-4.219 23.916-45.041 69.335-111.299 122.245-188.878 150.84zM159.98 528.003c0 34.809 10.322 68.837 29.661 97.78s46.827 51.502 78.987 64.823c32.16 13.321 67.548 16.806 101.688 10.015s65.501-23.554 90.115-48.167c24.614-24.614 41.376-55.974 48.167-90.115s3.305-69.528-10.015-101.688c-13.321-32.158-35.879-59.647-64.823-78.985s-62.971-29.66-97.78-29.66c-46.662 0.051-91.397 18.611-124.392 51.604s-51.554 77.731-51.608 124.393zM1000.54 133.202c-7.107-4.634-15.764-6.257-24.069-4.511-8.305 1.751-15.575 6.723-20.209 13.829-29.025 44.718-68.777 81.454-115.635 106.87-46.863 25.411-99.338 38.682-152.648 38.615-8.484 0-16.625 3.369-22.625 9.37s-9.375 14.141-9.375 22.63c0 8.484 3.374 16.625 9.375 22.625s14.141 9.375 22.625 9.375c25.917 0.020 51.512 5.77 74.952 16.835 23.439 11.059 44.145 27.162 60.641 47.155s28.37 43.382 34.78 68.497c6.405 25.114 7.188 51.334 2.289 76.785s-15.36 49.506-30.638 70.446c-15.273 20.94-34.985 38.247-57.723 50.686s-47.944 19.702-73.815 21.271c-25.871 1.568-51.768-2.596-75.843-12.197-3.927-1.697-8.151-2.59-12.431-2.626-4.275-0.036-8.515 0.785-12.467 2.416s-7.542 4.037-10.547 7.076c-3.011 3.040-5.376 6.652-6.963 10.622-1.592 3.971-2.365 8.219-2.284 12.495s1.019 8.492 2.755 12.399c1.741 3.907 4.244 7.426 7.368 10.349 3.118 2.923 6.794 5.191 10.808 6.669 55.096 21.974 116.383 22.765 172.027 2.22 55.649-20.545 101.714-60.97 129.316-113.476s34.78-113.374 20.147-170.861c-14.628-57.486-50.028-107.519-99.369-140.441 77.578-28.595 143.836-81.505 188.877-150.84 4.639-7.112 6.257-15.77 4.511-24.074-1.746-8.3-6.723-15.57-13.829-20.209z" />
<glyph unicode="&#xe961;" glyph-name="Clock1" data-tags="Clock" d="M512 864c-82.277 0-162.706-24.398-231.117-70.109s-121.731-110.681-153.217-186.695c-31.486-76.014-39.724-159.657-23.673-240.353s55.672-154.819 113.85-212.997c58.179-58.179 132.303-97.802 212.999-113.853s164.342-7.813 240.353 23.675c76.017 31.483 140.984 84.803 186.696 153.216 45.711 68.408 70.108 148.838 70.108 231.117-0.118 110.295-43.981 216.038-121.974 294.028-77.988 77.99-183.731 121.856-294.026 121.972zM512 96c-69.619 0-137.674 20.644-195.56 59.32-57.886 38.682-103.003 93.655-129.645 157.978-26.642 64.317-33.613 135.093-20.031 203.374s47.107 131.001 96.335 180.23c49.228 49.228 111.949 82.753 180.23 96.335s139.056 6.611 203.379-20.031c64.317-26.642 119.291-71.759 157.972-129.645 38.676-57.886 59.32-125.942 59.32-195.561-0.108-93.322-37.228-182.794-103.214-248.786-65.992-65.987-155.464-103.107-248.786-103.214zM768 448c0-8.489-3.369-16.625-9.375-22.625-6.001-6.006-14.136-9.375-22.625-9.375h-224c-8.487 0-16.626 3.369-22.627 9.375-6.001 6.001-9.373 14.136-9.373 22.625v224c0 8.487 3.372 16.626 9.373 22.627s14.14 9.373 22.627 9.373c8.489 0 16.625-3.372 22.625-9.373 6.006-6.001 9.375-14.14 9.375-22.627v-192h192c8.489 0 16.625-3.372 22.625-9.373 6.006-6.001 9.375-14.14 9.375-22.627z" />
<glyph unicode="&#xe962;" glyph-name="Group1" data-tags="Group" horiz-adv-x="1385" d="M143.059 18.824c-75.294 82.824-120.471 173.176-120.471 323.765 0 263.529 188.235 496.941 451.765 617.412l67.765-97.882c-248.471-135.529-301.176-308.706-316.235-421.647 37.647 22.588 90.353 30.118 143.059 22.588 135.529-15.059 240.941-120.471 240.941-263.529 0-67.765-30.118-135.529-75.294-188.235-52.706-52.706-112.941-75.294-188.235-75.294-82.824 0-158.118 37.647-203.294 82.824zM896 18.824c-75.294 82.824-120.471 173.176-120.471 323.765 0 263.529 188.235 496.941 451.765 617.412l67.765-97.882c-248.471-135.529-301.176-308.706-316.235-421.647 37.647 22.588 90.353 30.118 143.059 22.588 135.529-15.059 240.941-120.471 240.941-263.529 0-67.765-30.118-135.529-75.294-188.235s-112.941-75.294-188.235-75.294c-82.824 0-158.118 37.647-203.294 82.824z" />
<glyph unicode="&#xe963;" glyph-name="fiter1" data-tags="fiter" d="M597.601 711.998h266.399c6.366 0 12.47 2.529 16.97 7.029 4.503 4.501 7.029 10.605 7.029 16.971s-2.526 12.47-7.029 16.971c-4.5 4.501-10.604 7.029-16.97 7.029h-266.399c-5.51 27.127-20.227 51.515-41.66 69.033-21.43 17.518-48.262 27.087-75.941 27.087s-54.511-9.57-75.941-27.087c-21.433-17.518-36.15-41.906-41.66-69.033h-202.399c-6.365 0-12.47-2.528-16.971-7.029s-7.029-10.605-7.029-16.971c0-6.365 2.528-12.47 7.029-16.971s10.605-7.029 16.971-7.029h202.399c5.51-27.127 20.227-51.515 41.66-69.034 21.43-17.516 48.262-27.088 75.941-27.088s54.511 9.572 75.941 27.088c21.433 17.519 36.15 41.907 41.66 69.034zM407.999 735.998c0 14.24 4.224 28.161 12.134 40.001 7.913 11.84 19.157 21.069 32.313 26.518 13.158 5.45 27.634 6.875 41.6 4.097s26.798-9.635 36.867-19.705c10.069-10.070 16.924-22.899 19.703-36.865s1.354-28.443-4.096-41.6c-5.45-13.156-14.68-24.401-26.519-32.313-11.841-7.912-25.762-12.133-40.001-12.133-19.095 0-37.41 7.586-50.913 21.088s-21.089 31.816-21.089 50.912zM789.601 423.999h74.399c6.366 0 12.47 2.529 16.97 7.029 4.503 4.5 7.029 10.604 7.029 16.97s-2.526 12.47-7.029 16.97c-4.5 4.503-10.604 7.031-16.97 7.031h-74.399c-5.51 27.127-20.227 51.516-41.66 69.032-21.43 17.519-48.262 27.088-75.941 27.088s-54.511-9.569-75.941-27.088c-21.433-17.516-36.15-41.904-41.66-69.032h-394.399c-6.365 0-12.47-2.529-16.971-7.031-4.501-4.5-7.029-10.604-7.029-16.97s2.528-12.47 7.029-16.97c4.501-4.5 10.605-7.029 16.971-7.029h394.399c5.51-27.127 20.227-51.516 41.66-69.035 21.43-17.516 48.262-27.088 75.941-27.088s54.511 9.572 75.941 27.088c21.433 17.519 36.15 41.907 41.66 69.035zM599.999 447.997c0 14.242 4.224 28.16 12.134 40.001 7.913 11.841 19.157 21.069 32.313 26.519 13.158 5.45 27.634 6.875 41.6 4.096 13.966-2.776 26.798-9.634 36.867-19.703s16.924-22.898 19.703-36.867c2.779-13.966 1.354-28.442-4.096-41.597-5.45-13.158-14.68-24.402-26.519-32.313-11.841-7.913-25.762-12.134-40.001-12.134-19.095 0-37.41 7.586-50.913 21.089s-21.089 31.815-21.089 50.91zM352 39.999c27.654 0.031 54.451 9.597 75.873 27.085s36.159 41.828 41.728 68.915h394.399c6.366 0 12.47 2.529 16.97 7.029 4.503 4.5 7.029 10.604 7.029 16.97s-2.526 12.47-7.029 16.97c-4.5 4.503-10.604 7.031-16.97 7.031h-394.399c-5.51 27.127-20.227 51.516-41.66 69.032-21.43 17.519-48.262 27.088-75.941 27.088s-54.511-9.569-75.942-27.088c-21.432-17.516-36.149-41.904-41.658-69.032h-74.4c-6.365 0-12.47-2.529-16.971-7.031-4.501-4.5-7.029-10.604-7.029-16.97s2.528-12.47 7.029-16.97c4.501-4.5 10.605-7.029 16.971-7.029h74.4c5.568-27.088 20.305-51.428 41.727-68.915s48.219-27.054 75.873-27.085zM280 159.997c0 14.242 4.223 28.16 12.133 40.001 7.913 11.841 19.157 21.069 32.313 26.519 13.158 5.45 27.634 6.875 41.6 4.096 13.966-2.776 26.798-9.634 36.867-19.703s16.924-22.898 19.703-36.867c2.779-13.966 1.354-28.442-4.096-41.597-5.45-13.158-14.68-24.402-26.519-32.313-11.841-7.913-25.762-12.134-40.001-12.134-19.095 0-37.41 7.586-50.913 21.089s-21.087 31.815-21.087 50.91z" />
<glyph unicode="&#xe964;" glyph-name="phonecall1" data-tags="phonecall" d="M577.079 776.278c1.088 4.061 2.963 7.868 5.521 11.204s5.749 6.135 9.389 8.238c3.639 2.102 7.659 3.467 11.827 4.016s8.403 0.271 12.463-0.818c59.324-15.478 113.449-46.49 156.8-89.843 43.351-43.351 74.364-97.474 89.841-156.798 1.088-4.060 1.365-8.294 0.817-12.463s-1.914-8.188-4.015-11.827c-2.103-3.642-4.902-6.831-8.239-9.389-3.334-2.558-7.142-4.435-11.204-5.521-2.703-0.71-5.485-1.073-8.279-1.079-7.051 0-13.905 2.33-19.497 6.626s-9.609 10.319-11.424 17.133c-12.623 48.429-37.933 92.612-73.321 128s-79.571 60.698-127.998 73.321c-4.066 1.082-7.876 2.955-11.217 5.51-3.341 2.558-6.144 5.747-8.252 9.388-2.106 3.641-3.473 7.661-4.026 11.831-0.55 4.17-0.275 8.408 0.813 12.471zM567.761 609.077c55.159-14.72 90.598-50.159 105.318-105.321 1.818-6.814 5.833-12.836 11.424-17.133s12.446-6.626 19.497-6.626c2.795 0.006 5.577 0.369 8.279 1.079 4.062 1.086 7.87 2.963 11.204 5.521 3.337 2.558 6.135 5.747 8.239 9.389 2.101 3.639 3.467 7.659 4.015 11.827s0.271 8.403-0.817 12.463c-20.48 76.64-74.001 130.161-150.641 150.641-8.201 2.191-16.934 1.033-24.282-3.217s-12.706-11.243-14.897-19.443-1.035-16.937 3.215-24.284c4.25-7.347 11.245-12.706 19.445-14.897zM895.52 227.678c-7.132-54.202-33.751-103.953-74.884-139.964-41.133-36.009-93.967-55.814-148.636-55.716-317.6 0-576 258.4-576 576-0.098 54.669 19.708 107.503 55.717 148.636s85.761 67.752 139.962 74.884c13.707 1.674 27.586-1.13 39.567-7.994 11.983-6.863 21.423-17.417 26.914-30.086l84.48-188.599v-0.48c4.203-9.698 5.939-20.288 5.052-30.82-0.885-10.532-4.367-20.681-10.133-29.54-0.719-1.079-1.478-2.080-2.278-3.081l-83.281-98.72c29.961-60.879 93.641-124 155.319-154.039l97.361 82.839c0.956 0.804 1.958 1.551 2.999 2.24 8.851 5.905 19.036 9.508 29.632 10.485 10.594 0.979 21.265-0.702 31.049-4.885l0.521-0.239 188.439-84.442c12.691-5.47 23.27-14.901 30.157-26.886 6.886-11.983 9.707-25.873 8.043-39.593zM832 235.678c0 0-0.279 0-0.439 0l-188 84.201-97.399-82.842c-0.945-0.8-1.933-1.547-2.961-2.24-9.21-6.144-19.855-9.794-30.897-10.592-11.044-0.8-22.103 1.278-32.102 6.033-74.921 36.201-149.6 110.319-185.841 184.439-4.798 9.926-6.95 20.924-6.251 31.925 0.702 11.004 4.233 21.638 10.251 30.876 0.678 1.084 1.442 2.114 2.281 3.078l83.36 98.842-84 187.999c-0.015 0.16-0.015 0.32 0 0.48-38.79-5.060-74.404-24.087-100.175-53.516-25.771-29.431-39.929-67.245-39.824-106.364 0.148-135.746 54.139-265.888 150.124-361.875 95.987-95.987 226.129-149.978 361.875-150.125 39.095-0.134 76.9 13.975 106.347 39.689 29.446 25.715 48.521 61.276 53.653 100.032v-0.041z" />
<glyph unicode="&#xe965;" glyph-name="shieldcheck1" data-tags="shieldcheck" d="M832 800h-640c-16.974 0-33.252-6.743-45.255-18.745s-18.745-28.281-18.745-45.255v-224c0-210.88 102.080-338.679 187.721-408.759 92.239-75.441 184-101.041 188-102.121 5.5-1.495 11.3-1.495 16.8 0 4 1.079 95.639 26.679 188 102.121 85.399 70.080 187.479 197.879 187.479 408.759v224c0 16.974-6.743 33.252-18.746 45.255s-28.279 18.745-45.254 18.745zM832 512c0-148.279-54.641-268.64-162.4-357.679-46.908-38.63-100.258-68.689-157.6-88.8-56.591 19.761-109.282 49.286-155.68 87.238-109.039 89.201-164.32 210.042-164.32 359.241v224h640v-224zM329.359 393.361c-6.003 6.003-9.376 14.148-9.376 22.639 0 8.493 3.373 16.636 9.376 22.641 6.005 6.003 14.15 9.376 22.641 9.376s16.636-3.373 22.641-9.376l73.359-73.402 201.359 201.402c2.974 2.972 6.505 5.331 10.389 6.94s8.047 2.436 12.252 2.436 8.369-0.828 12.252-2.436c3.885-1.609 7.415-3.968 10.389-6.94 2.972-2.974 5.331-6.505 6.94-10.389s2.436-8.047 2.436-12.252-0.828-8.369-2.436-12.252c-1.609-3.885-3.968-7.415-6.94-10.387l-224-224c-2.974-2.976-6.502-5.335-10.387-6.946s-8.049-2.441-12.254-2.441c-4.205 0-8.369 0.83-12.254 2.441s-7.413 3.97-10.387 6.946l-96 96z" />
<glyph unicode="&#xe966;" glyph-name="user3" data-tags="user" d="M923.686 112c-60.922 105.321-154.801 180.841-264.361 216.64 54.193 32.262 96.299 81.421 119.849 139.93 23.55 58.507 27.245 123.127 10.513 183.936-16.73 60.811-52.958 114.447-103.123 152.674-50.163 38.227-111.49 58.93-174.558 58.93-63.070 0-124.395-20.703-174.56-58.93-50.163-38.227-86.394-91.863-103.123-152.674-16.73-60.809-13.037-125.429 10.513-183.936 23.552-58.509 65.655-107.667 119.849-139.93-109.559-35.759-203.439-111.279-264.359-216.64-2.234-3.642-3.716-7.695-4.358-11.921-0.642-4.224-0.432-8.535 0.619-12.676 1.051-4.143 2.92-8.032 5.499-11.439 2.578-3.409 5.813-6.266 9.513-8.403s7.791-3.511 12.031-4.043c4.24-0.529 8.544-0.207 12.657 0.954 4.113 1.158 7.952 3.13 11.291 5.798s6.109 5.975 8.148 9.73c75.359 130.24 208.56 208 356.281 208 147.718 0 280.919-77.76 356.279-208 2.039-3.755 4.811-7.063 8.149-9.73 3.339-2.669 7.177-4.64 11.29-5.798 4.113-1.161 8.416-1.483 12.657-0.954 4.239 0.531 8.331 1.905 12.030 4.043 3.701 2.138 6.935 4.994 9.515 8.403 2.577 3.407 4.448 7.296 5.498 11.439 1.052 4.141 1.263 8.452 0.621 12.676-0.642 4.226-2.125 8.279-4.358 11.921zM288.006 576c0 44.303 13.137 87.612 37.749 124.448 24.614 36.836 59.599 65.548 100.529 82.502s85.969 21.39 129.421 12.747c43.452-8.643 83.364-29.977 114.692-61.305 31.326-31.326 52.661-71.238 61.303-114.69 8.644-43.452 4.207-88.491-12.747-129.423-16.954-40.93-45.664-75.915-82.5-100.527-36.838-24.614-80.145-37.751-124.448-37.751-59.39 0.064-116.329 23.684-158.323 65.679s-65.615 98.933-65.677 158.321z" />
<glyph unicode="&#xe968;" glyph-name="sealpercent1" data-tags="sealpercent" d="M903.441 548.721c-15.081 15.759-30.682 31.998-36.561 46.278-5.44 13.079-5.76 34.761-6.080 55.761-0.599 39.040-1.239 83.279-32 114.039s-74.999 31.4-114.039 32c-21.001 0.32-42.682 0.64-55.761 6.080-14.24 5.88-30.519 21.48-46.281 36.56-27.599 26.52-58.959 56.56-100.719 56.56s-73.079-30.040-100.721-56.56c-15.759-15.080-31.998-30.68-46.278-36.56-13.001-5.44-34.761-5.76-55.761-6.080-39.040-0.6-83.279-1.24-114.039-32s-31.2-74.999-32-114.039c-0.32-21.001-0.64-42.682-6.080-55.761-5.88-14.24-21.48-30.519-36.56-46.278-26.52-27.642-56.56-58.961-56.56-100.721s30.040-73.079 56.56-100.719c15.080-15.761 30.68-32.002 36.56-46.281 5.44-13.079 5.76-34.761 6.080-55.761 0.6-39.040 1.24-83.279 32-114.039s74.999-31.401 114.039-32c21.001-0.32 42.682-0.64 55.761-6.080 14.24-5.879 30.519-21.481 46.278-36.561 27.601-26.519 58.961-56.559 100.721-56.559s73.079 30.039 100.719 56.559c15.761 15.081 32.002 30.682 46.281 36.561 13.079 5.44 34.761 5.76 55.761 6.080 39.040 0.599 83.279 1.239 114.039 32s31.401 74.999 32 114.039c0.32 21.001 0.64 42.682 6.080 55.761 5.879 14.24 21.481 30.519 36.561 46.281 26.519 27.639 56.559 58.959 56.559 100.719s-30.039 73.079-56.559 100.721zM857.239 391.561c-19.159-20-38.999-40.681-49.519-66.080-10.080-24.401-10.522-52.279-10.921-79.281-0.401-28-0.841-57.321-13.28-69.719-12.439-12.401-41.559-12.879-69.719-13.28-27.002-0.399-54.88-0.841-79.281-10.921-25.399-10.519-46.080-30.359-66.080-49.519s-40.439-38.761-56.439-38.761c-16 0-36.599 19.68-56.439 38.761s-40.681 38.999-66.080 49.519c-24.401 10.080-52.279 10.522-79.281 10.921-28 0.401-57.318 0.841-69.719 13.28s-12.881 41.559-13.28 69.719c-0.401 27.002-0.841 54.88-10.921 79.281-10.519 25.399-30.359 46.080-49.52 66.080s-38.76 40.439-38.76 56.439c0 16 19.68 36.561 38.76 56.439 19.080 19.881 39 40.681 49.52 66.080 10.080 24.401 10.519 52.279 10.921 79.281 0.399 28 0.841 57.318 13.28 69.719s41.559 12.881 69.719 13.28c27.002 0.401 54.88 0.841 79.281 10.921 25.399 10.519 46.080 30.359 66.080 49.52s40.439 38.76 56.439 38.76c16 0 36.599-19.68 56.439-38.76s40.681-39 66.080-49.52c24.401-10.080 52.279-10.519 79.281-10.921 28-0.399 57.321-0.841 69.719-13.28 12.401-12.439 12.879-41.559 13.28-69.719 0.399-27.002 0.841-54.88 10.921-79.281 10.519-25.399 30.359-46.080 49.519-66.080s38.761-40.439 38.761-56.439c0-16-19.68-36.561-38.761-56.439zM480 576c0 18.987-5.63 37.547-16.179 53.335s-25.542 28.092-43.083 35.358c-17.542 7.266-36.845 9.167-55.467 5.461-18.622-3.703-35.727-12.847-49.154-26.272-13.425-13.427-22.569-30.532-26.272-49.154-3.706-18.622-1.805-37.924 5.461-55.467 7.266-17.54 19.571-32.533 35.358-43.083 15.789-10.549 34.349-16.179 53.335-16.179 25.461 0 49.879 10.114 67.883 28.117s28.117 42.421 28.117 67.883zM352 576c0 6.33 1.877 12.516 5.393 17.779 3.516 5.261 8.514 9.363 14.362 11.785 5.847 2.423 12.282 3.057 18.487 1.822 6.208-1.235 11.91-4.284 16.386-8.757 4.474-4.476 7.522-10.178 8.757-16.386 1.235-6.206 0.602-12.64-1.822-18.487-2.421-5.847-6.524-10.846-11.785-14.362-5.263-3.516-11.45-5.393-17.779-5.393-8.486 0-16.627 3.371-22.628 9.372s-9.372 14.142-9.372 22.628zM640 416c-18.987 0-37.547-5.63-53.335-16.179s-28.092-25.542-35.358-43.083c-7.266-17.542-9.167-36.845-5.461-55.467 3.703-18.622 12.847-35.727 26.272-49.154 13.427-13.425 30.532-22.569 49.154-26.272 18.622-3.706 37.924-1.805 55.467 5.461 17.54 7.266 32.533 19.571 43.083 35.358 10.549 15.789 16.179 34.349 16.179 53.335 0 25.461-10.114 49.879-28.117 67.883s-42.421 28.117-67.883 28.117zM640 288c-6.33 0-12.516 1.877-17.779 5.393-5.261 3.516-9.363 8.514-11.785 14.362-2.423 5.847-3.057 12.282-1.822 18.487 1.235 6.208 4.284 11.91 8.757 16.386 4.476 4.474 10.178 7.522 16.386 8.757 6.206 1.235 12.64 0.602 18.487-1.822 5.847-2.421 10.846-6.524 14.362-11.785 3.516-5.263 5.393-11.45 5.393-17.779 0-8.486-3.371-16.627-9.372-22.628s-14.142-9.372-22.628-9.372zM694.641 585.359l-320-320c-2.974-2.972-6.505-5.331-10.389-6.94-3.883-1.609-8.047-2.436-12.252-2.436s-8.369 0.828-12.252 2.436c-3.885 1.609-7.415 3.968-10.389 6.94-2.972 2.974-5.331 6.505-6.94 10.389s-2.436 8.047-2.436 12.252 0.828 8.369 2.436 12.252c1.609 3.885 3.968 7.415 6.94 10.389l320 320c2.974 2.972 6.505 5.331 10.389 6.94s8.047 2.436 12.252 2.436 8.369-0.828 12.252-2.436c3.885-1.609 7.415-3.968 10.389-6.94 2.972-2.974 5.331-6.505 6.94-10.389s2.436-8.047 2.436-12.252-0.828-8.369-2.436-12.252c-1.609-3.885-3.968-7.415-6.94-10.389z" />
<glyph unicode="&#xe969;" glyph-name="pinterest-21" data-tags="pinterest-2" d="M525.911 960c-280.706-0.043-429.911-179.882-429.911-375.978 0-90.923 50.816-204.374 132.182-240.342 23.21-10.455 20.138 2.304 40.106 78.679 0.919 3.082 1 6.359 0.236 9.482-0.765 3.128-2.348 5.996-4.588 8.31-116.31 134.526-22.698 411.091 245.376 411.091 387.968 0 315.479-536.834 67.497-536.834-63.913 0-111.529 50.176-96.467 112.256 18.261 73.943 54.018 153.431 54.018 206.722 0 134.315-200.109 114.39-200.109-63.573 0-54.998 19.456-92.118 19.456-92.118s-64.384-260.096-76.33-308.695c-20.224-82.258 2.73-215.424 4.736-226.898 1.238-6.318 8.32-8.32 12.288-3.118 6.358 8.32 84.182 119.342 105.984 199.598 7.936 29.225 40.49 147.84 40.49 147.84 21.462-38.743 83.326-71.168 149.246-71.168 196.096 0 337.838 172.37 337.838 386.259-0.686 205.056-176.174 358.486-402.048 358.486z" />
<glyph unicode="&#xe96b;" glyph-name="check3" data-tags="check" horiz-adv-x="945" d="M811.859 662.717c16.534-14.471 18.038-39.68 3.324-56.006l-414.084-459.609c-14.787-16.416-40.175-17.455-56.259-2.316l-239.617 225.578c-14.943 14.069-16.374 37.511-3.553 53.536 14.147 17.684 40.492 20.118 57.328 4.974l185.911-167.224c16.156-14.533 41.030-13.233 55.587 2.903l356.175 394.906c14.411 15.981 38.992 17.429 55.187 3.258z" />
<glyph unicode="&#xe96c;" glyph-name="back1" data-tags="back" d="M297.358 425.361l319.999-320c2.974-2.97 6.502-5.329 10.389-6.938 3.883-1.609 8.047-2.436 12.25-2.436 4.207 0 8.371 0.828 12.254 2.436 3.887 1.609 7.415 3.968 10.389 6.938 2.974 2.974 5.329 6.507 6.938 10.389 1.613 3.883 2.441 8.047 2.441 12.254 0 4.203-0.828 8.367-2.441 12.25-1.609 3.887-3.964 7.415-6.938 10.389l-297.401 297.361 297.401 297.359c6.003 6.004 9.378 14.148 9.378 22.64s-3.375 16.636-9.378 22.64c-6.007 6.004-14.148 9.378-22.643 9.378-8.491 0-16.631-3.373-22.639-9.378l-319.999-320c-2.975-2.974-5.335-6.502-6.946-10.385-1.61-3.887-2.439-8.051-2.439-12.254 0-4.207 0.829-8.371 2.439-12.254 1.61-3.887 3.971-7.415 6.946-10.389z" />
<glyph unicode="&#xe96d;" glyph-name="next1" data-tags="next" d="M726.639 425.361l-320.002-320c-2.973-2.97-6.502-5.329-10.387-6.938s-8.048-2.436-12.253-2.436c-4.205 0-8.368 0.828-12.253 2.436s-7.414 3.968-10.388 6.938c-2.973 2.974-5.331 6.507-6.941 10.389s-2.437 8.047-2.437 12.254c0 4.203 0.828 8.367 2.437 12.25 1.609 3.887 3.968 7.415 6.941 10.389l297.399 297.361-297.399 297.359c-6.004 6.004-9.378 14.148-9.378 22.64s3.373 16.636 9.378 22.64c6.004 6.004 14.149 9.378 22.64 9.378s16.635-3.373 22.64-9.378l320.002-320c2.974-2.974 5.333-6.502 6.942-10.385 1.613-3.887 2.441-8.051 2.441-12.254 0-4.207-0.828-8.371-2.441-12.254-1.609-3.887-3.968-7.415-6.942-10.389z" />
<glyph unicode="&#xe96e;" glyph-name="undo211" data-tags="undo21" d="M761.862-64c113.726 206.032 132.888 520.306-313.862 509.824v-253.824l-384 384 384 384v-248.372c534.962 13.942 594.57-472.214 313.862-775.628z" />
<glyph unicode="&#xe96f;" glyph-name="checkbox-3" data-tags="checkbox-3" horiz-adv-x="1073" d="M758.048 596.526c5.115-5.097 9.172-11.152 11.942-17.821s4.194-13.817 4.194-21.037c0-7.22-1.424-14.369-4.194-21.037s-6.827-12.724-11.942-17.82l-256-256c-5.096-5.115-11.152-9.172-17.818-11.942-6.668-2.77-13.817-4.194-21.037-4.194s-14.369 1.424-21.037 4.194c-6.668 2.77-12.724 6.827-17.821 11.942l-109.714 109.714c-5.103 5.1-9.151 11.162-11.912 17.827s-4.183 13.814-4.183 21.031c0 7.217 1.421 14.36 4.183 21.026 2.761 6.671 6.809 12.727 11.912 17.827 5.103 5.105 11.161 9.153 17.828 11.913 6.667 2.765 13.813 4.184 21.030 4.184s14.362-1.419 21.029-4.184c6.667-2.76 12.725-6.807 17.828-11.913l70.903-70.807 217.19 217.232c5.1 5.091 11.162 9.127 17.822 11.876 6.666 2.749 13.804 4.157 21.016 4.144 7.207-0.013 14.346-1.446 20.997-4.218 6.656-2.773 12.698-6.83 17.783-11.939zM1030.095 448c0-97.646-28.955-193.102-83.207-274.291-54.248-81.193-131.355-144.472-221.569-181.843-90.214-37.366-189.484-47.143-285.257-28.097-95.771 19.051-183.742 66.072-252.79 135.119s-116.069 157.023-135.119 252.791c-19.050 95.773-9.273 195.041 28.095 285.256s100.649 167.322 181.84 221.572c81.191 54.25 176.645 83.206 274.293 83.206 130.896-0.145 256.39-52.208 348.95-144.766 92.555-92.558 144.618-218.052 144.764-348.948zM920.381 448c0 75.948-22.523 150.191-64.717 213.339s-102.166 112.366-172.334 141.43c-70.164 29.064-147.373 36.668-221.863 21.852s-142.911-51.389-196.614-105.092-90.276-122.126-105.093-196.614c-14.817-74.491-7.212-151.7 21.852-221.864 29.064-70.168 78.282-130.141 141.431-172.334s137.391-64.717 213.339-64.717c101.81 0.107 199.417 40.599 271.409 112.591s112.484 169.599 112.591 271.409z" />
<glyph unicode="&#xe970;" glyph-name="map-pin" data-tags="map-pin" d="M512 704c-31.645 0-62.579-9.384-88.891-26.965s-46.819-42.57-58.929-71.805c-12.11-29.236-15.279-61.407-9.105-92.444s21.412-59.546 43.788-81.922c22.376-22.374 50.886-37.617 81.923-43.791 31.037-6.17 63.209-3 92.445 9.108s54.226 32.614 71.803 58.928c17.582 26.312 26.967 57.246 26.967 88.891 0 42.435-16.855 83.131-46.863 113.137-30.003 30.006-70.702 46.863-113.137 46.863zM512 448c-18.987 0-37.548 5.63-53.335 16.179s-28.092 25.542-35.358 43.084c-7.266 17.542-9.167 36.844-5.463 55.466s12.847 35.728 26.273 49.154c13.426 13.426 30.532 22.569 49.154 26.273s37.923 1.803 55.464-5.463c17.541-7.266 32.538-19.57 43.085-35.358s16.179-34.348 16.179-53.335c0-25.461-10.112-49.879-28.119-67.882-18.002-18.003-42.419-28.118-67.881-28.118zM512 896c-93.324-0.106-182.795-37.225-248.785-103.215s-103.109-155.461-103.215-248.785c0-125.599 58.040-258.719 168-384.998 49.409-57.062 105.018-108.447 165.8-153.201 5.381-3.768 11.791-5.791 18.359-5.791s12.979 2.022 18.36 5.791c60.672 44.769 116.173 96.154 165.484 153.201 109.798 126.28 167.997 259.4 167.997 384.998-0.108 93.324-37.228 182.795-103.214 248.785-65.992 65.99-155.464 103.109-248.786 103.215zM512 71.997c-66.12 52.004-288 243-288 472.003 0 76.382 30.343 149.636 84.353 203.647s127.265 84.353 203.647 84.353c76.38 0 149.637-30.343 203.648-84.353s84.352-127.265 84.352-203.647c0-228.92-221.88-419.999-288-472.003z" />
<glyph unicode="&#xe971;" glyph-name="share-network" data-tags="share-network" d="M703.993 320.015c-21.347 0.007-42.478-4.268-62.142-12.577-19.664-8.305-37.46-20.473-52.337-35.781l-184.4 118.517c14.504 37.197 14.504 78.486 0 115.683l184.4 118.519c27.696-28.373 64.944-45.449 104.517-47.921s78.654 9.841 109.667 34.547c31.013 24.707 51.749 60.049 58.181 99.174 6.437 39.126-1.883 79.247-23.351 112.585-21.464 33.338-54.546 57.518-92.826 67.853s-79.035 6.087-114.363-11.92c-35.324-18.007-62.709-48.489-76.837-85.537s-13.996-78.023 0.369-114.981l-184.4-118.518c-22.206 22.795-50.705 38.453-81.855 44.969s-63.536 3.595-93.017-8.39c-29.481-11.984-54.719-32.49-72.486-58.891-17.767-26.405-27.258-57.505-27.258-89.329s9.49-62.925 27.258-89.329c17.767-26.401 43.005-46.907 72.486-58.891s61.866-14.907 93.017-8.389c31.15 6.517 59.649 22.173 81.855 44.968l184.4-118.517c-12.354-31.861-14.182-66.842-5.219-99.818 8.967-32.973 28.255-62.212 55.036-83.434 26.785-21.219 59.663-33.309 93.813-34.494s67.785 8.598 95.974 27.911c28.193 19.313 49.459 47.144 60.69 79.419 11.227 32.274 11.827 67.295 1.712 99.935-10.112 32.644-30.413 61.188-57.925 81.456s-60.789 31.195-94.961 31.184zM703.993 832.015c18.988 0 37.548-5.63 53.332-16.179 15.788-10.549 28.094-25.542 35.361-43.083 7.263-17.542 9.165-36.844 5.46-55.466-3.701-18.622-12.848-35.728-26.273-49.153s-30.53-22.569-49.152-26.273c-18.622-3.704-37.925-1.803-55.468 5.463-17.54 7.266-32.534 19.57-43.081 35.358-10.551 15.787-16.179 34.348-16.179 53.335 0 25.461 10.112 49.879 28.116 67.882s42.423 28.118 67.884 28.118zM255.992 352.015c-18.987 0-37.548 5.632-53.335 16.179s-28.092 25.541-35.358 43.085c-7.266 17.54-9.167 36.842-5.463 55.464s12.848 35.727 26.273 49.156c13.426 13.425 30.531 22.568 49.153 26.273 18.622 3.701 37.925 1.803 55.466-5.464s32.535-19.569 43.083-35.357c10.549-15.788 16.179-34.348 16.179-53.336 0-25.461-10.114-49.88-28.118-67.884-18.003-18-42.421-28.116-67.882-28.116zM703.993 64.015c-18.988 0-37.548 5.632-53.336 16.179s-28.091 25.541-35.357 43.085c-7.267 17.54-9.168 36.842-5.464 55.464s12.848 35.727 26.273 49.156c13.425 13.425 30.533 22.568 49.156 26.273s37.925 1.803 55.464-5.464c17.543-7.267 32.534-19.569 43.085-35.357 10.547-15.788 16.179-34.348 16.179-53.336 0-25.461-10.116-49.88-28.12-67.884-18.004-18-42.419-28.116-67.88-28.116z" />
<glyph unicode="&#xe972;" glyph-name="translate" data-tags="translate" d="M981.481 106.721l-224 448c-1.991 3.994-5.057 7.353-8.852 9.702-3.794 2.347-8.166 3.593-12.629 3.593s-8.835-1.246-12.629-3.593c-3.794-2.35-6.861-5.709-8.852-9.702l-89.199-178.401c-74.55 3.092-146.298 29.272-205.321 74.92 68.617 70.172 109.557 162.782 115.28 260.76h104.721c6.366 0 12.47 2.528 16.97 7.029 4.503 4.501 7.031 10.605 7.031 16.971s-2.529 12.47-7.031 16.971c-4.5 4.501-10.604 7.029-16.97 7.029h-231.999v72c0 6.365-2.529 12.47-7.031 16.971-4.5 4.501-10.604 7.029-16.97 7.029s-12.47-2.528-16.97-7.029c-4.503-4.501-7.031-10.605-7.031-16.971v-72h-231.999c-6.365 0-12.47-2.528-16.971-7.029s-7.029-10.605-7.029-16.971c0-6.365 2.528-12.47 7.029-16.971s10.605-7.029 16.971-7.029h359.159c-5.695-86.239-42.328-167.528-103.159-228.919-37.313 37.604-65.849 82.992-83.561 132.918-0.993 3.044-2.586 5.857-4.682 8.274s-4.656 4.392-7.529 5.806c-2.87 1.414-5.996 2.239-9.19 2.426s-6.395-0.265-9.413-1.331c-3.017-1.067-5.791-2.728-8.157-4.884-2.366-2.153-4.277-4.762-5.621-7.666s-2.094-6.047-2.204-9.247c-0.111-3.197 0.419-6.386 1.558-9.375 19.743-55.76 51.411-106.542 92.801-148.801-62.933-48.828-140.346-75.29-220.001-75.199-6.365 0-12.47-2.529-16.971-7.031-4.501-4.5-7.029-10.604-7.029-16.97s2.528-12.47 7.029-16.97c4.501-4.503 10.605-7.031 16.971-7.031 93.191-0.085 183.578 31.875 256 90.522 62.424-50.33 138.286-81.172 218.121-88.681l-111.559-223.118c-1.408-2.822-2.247-5.891-2.469-9.037s0.179-6.303 1.178-9.293c2.020-6.039 6.354-11.028 12.049-13.872 5.697-2.842 12.291-3.305 18.33-1.289 6.039 2.020 11.028 6.352 13.872 12.049l57.318 114.719h290.321l57.358-114.719c1.994-3.991 5.060-7.347 8.852-9.694 3.794-2.344 8.169-3.587 12.629-3.587 3.726-0.009 7.401 0.87 10.721 2.563 5.686 2.842 10.015 7.822 12.032 13.852s1.559 12.612-1.271 18.307zM614.841 248.001l121.159 242.318 121.159-242.318h-242.318z" />
<glyph unicode="&#xe973;" glyph-name="thumbs-up" data-tags="thumbs-up" d="M929.96 634.24c-8.257 9.353-18.406 16.842-29.778 21.973s-23.706 7.785-36.181 7.788h-231.999v71.999c0 40.313-16.017 78.975-44.521 107.48s-67.166 44.52-107.48 44.52c-4.46 0.001-8.835-1.24-12.629-3.586-3.792-2.346-6.858-5.703-8.852-9.694l-153.358-306.719h-177.161c-14.852 0-29.096-5.902-39.598-16.404s-16.402-24.747-16.402-39.598v-352c0-14.851 5.9-29.096 16.402-39.598s24.746-16.404 39.598-16.404h688c21.447 0 42.158 7.834 58.237 22.027s26.422 33.772 29.082 55.054l48 384c1.547 12.382 0.444 24.954-3.24 36.878-3.681 11.924-9.859 22.926-18.119 32.282zM120 160v352c0 2.122 0.843 4.156 2.343 5.658 1.5 1.499 3.535 2.341 5.657 2.341h167.999v-367.997h-167.999c-2.122 0-4.157 0.842-5.657 2.341-1.5 1.502-2.343 3.536-2.343 5.658zM903.68 571.039l-48-384c-1.209-9.671-5.908-18.571-13.215-25.023-7.305-6.451-16.717-10.015-26.465-10.015h-471.999v386.318l150.318 300.68c24.863-3.456 47.636-15.787 64.117-34.717 16.484-18.93 25.563-43.183 25.563-68.283v-96c0-6.366 2.529-12.47 7.031-16.97 4.5-4.503 10.604-7.031 16.97-7.031h256c5.672 0 11.275-1.206 16.444-3.541 5.168-2.332 9.782-5.737 13.537-9.99 3.752-4.25 6.556-9.253 8.229-14.669 1.673-5.419 2.173-11.133 1.471-16.759z" />
<glyph unicode="&#xe974;" glyph-name="hourglass-medium" data-tags="hourglass-medium" d="M792.001 657.439v142.561c0 14.852-5.902 29.096-16.404 39.598s-24.747 16.402-39.598 16.402h-448c-14.852 0-29.096-5.9-39.598-16.402s-16.402-24.746-16.402-39.598v-144c0.018-8.69 2.051-17.257 5.937-25.031s9.521-14.541 16.463-19.769l217.601-163.2-217.601-163.2c-6.941-5.228-12.576-11.995-16.463-19.769s-5.919-16.341-5.937-25.031v-144c0-14.851 5.9-29.096 16.402-39.598s24.746-16.404 39.598-16.404h448c14.851 0 29.096 5.902 39.598 16.404s16.404 24.747 16.404 39.598v142.561c-0.026 8.656-2.045 17.189-5.902 24.937s-9.449 14.504-16.338 19.743l-217.762 164.759 217.961 164.759c6.855 5.259 12.407 12.023 16.23 19.772 3.82 7.748 5.808 16.27 5.811 24.909zM280 800c0 2.122 0.843 4.157 2.343 5.657s3.535 2.343 5.657 2.343h448c2.122 0 4.156-0.843 5.658-2.343 1.499-1.5 2.341-3.535 2.341-5.657v-142.561c0.006-1.237-0.276-2.46-0.825-3.573-0.549-1.109-1.348-2.076-2.332-2.827l-25.242-19.038h-408.92l-23.479 17.599c-0.994 0.745-1.8 1.712-2.355 2.822-0.555 1.112-0.845 2.335-0.845 3.578v144zM512 478.040l-141.321 105.958h281.321l-140.001-105.958zM743.999 238.561v-142.561c0-2.122-0.842-4.156-2.341-5.658-1.502-1.499-3.536-2.341-5.658-2.341h-448c-2.122 0-4.157 0.842-5.657 2.341-1.5 1.502-2.343 3.536-2.343 5.658v144c0 1.243 0.289 2.466 0.845 3.578 0.556 1.109 1.362 2.076 2.355 2.822l204.799 153.6v-112c0-6.366 2.529-12.47 7.031-16.97 4.5-4.503 10.604-7.031 16.97-7.031s12.47 2.529 16.97 7.031c4.503 4.5 7.031 10.604 7.031 16.97v111.761l204.84-154.8c0.984-0.751 1.783-1.718 2.332-2.827 0.549-1.112 0.831-2.335 0.825-3.573z" />
<glyph unicode="&#xe975;" glyph-name="currency-circle-dollar" data-tags="currency-circle-dollar" d="M512 856c-80.694 0-159.576-23.929-226.674-68.76-67.094-44.832-119.388-108.553-150.269-183.105s-38.96-156.587-23.217-235.73c15.743-79.144 54.601-151.845 111.661-208.905s129.76-95.918 208.903-111.659c79.144-15.744 161.178-7.663 235.73 23.216s138.274 83.174 183.105 150.269c44.831 67.098 68.762 145.98 68.762 226.674-0.128 108.169-43.156 211.871-119.643 288.359s-180.19 119.514-288.358 119.641zM512 88.001c-71.202 0-140.803 21.111-200.004 60.669-59.203 39.558-105.345 95.781-132.592 161.564-27.248 65.781-34.377 138.163-20.486 207.997s48.177 133.979 98.524 184.326c50.347 50.347 114.492 84.634 184.326 98.524s142.217 6.762 207.997-20.486c65.783-27.248 122.007-73.39 161.564-132.592 39.558-59.201 60.672-128.802 60.672-200.004-0.108-95.445-38.070-186.951-105.56-254.441s-158.996-105.452-254.441-105.557zM664.001 368c0-27.583-10.96-54.036-30.461-73.54-19.504-19.502-45.958-30.461-73.54-30.461h-23.999v-39.999c0-6.366-2.529-12.47-7.031-16.97-4.5-4.503-10.604-7.031-16.97-7.031s-12.47 2.529-16.97 7.031c-4.5 4.5-7.029 10.604-7.029 16.97v39.999h-72.001c-6.366 0-12.47 2.529-16.97 7.031-4.5 4.5-7.029 10.604-7.029 16.97s2.529 12.47 7.029 16.97c4.5 4.503 10.604 7.031 16.97 7.031h144c14.854 0 29.096 5.899 39.598 16.401s16.404 24.747 16.404 39.598c0 14.851-5.902 29.096-16.404 39.598s-24.744 16.401-39.598 16.401h-96c-27.583 0-54.036 10.96-73.54 30.461-19.502 19.504-30.458 45.958-30.458 73.54s10.957 54.036 30.458 73.54c19.504 19.502 45.958 30.461 73.54 30.461h24.001v39.999c0 6.365 2.529 12.47 7.029 16.971s10.604 7.029 16.97 7.029c6.366 0 12.47-2.529 16.97-7.029 4.503-4.501 7.031-10.605 7.031-16.971v-39.999h71.999c6.366 0 12.47-2.529 16.97-7.031 4.503-4.5 7.031-10.604 7.031-16.97s-2.529-12.47-7.031-16.97c-4.5-4.503-10.604-7.031-16.97-7.031h-144c-14.851 0-29.096-5.899-39.598-16.401s-16.401-24.747-16.401-39.598c0-14.851 5.899-29.096 16.401-39.598s24.747-16.401 39.598-16.401h96c27.583 0 54.036-10.96 73.54-30.461 19.502-19.504 30.461-45.958 30.461-73.54z" />
<glyph unicode="&#xe9db;" glyph-name="heart1" data-tags="heart" d="M755.188 896c-107.63 0-200.258-87.554-243.164-179-42.938 91.444-135.578 179-243.216 179-148.382 0-268.808-120.44-268.808-268.832 0-301.846 304.5-380.994 512.022-679.418 196.154 296.576 511.978 387.206 511.978 679.418 0 148.392-120.43 268.832-268.812 268.832z" />
<glyph unicode="&#xea1d;" glyph-name="play31" data-tags="play3" d="M192 832l640-384-640-384z" />
<glyph unicode="&#xea93;" glyph-name="instagram21" data-tags="instagram2" d="M512 867.8c136.8 0 153-0.6 206.8-3 50-2.2 77-10.6 95-17.6 23.8-9.2 41-20.4 58.8-38.2 18-18 29-35 38.4-58.8 7-18 15.4-45.2 17.6-95 2.4-54 3-70.2 3-206.8s-0.6-153-3-206.8c-2.2-50-10.6-77-17.6-95-9.2-23.8-20.4-41-38.2-58.8-18-18-35-29-58.8-38.4-18-7-45.2-15.4-95-17.6-54-2.4-70.2-3-206.8-3s-153 0.6-206.8 3c-50 2.2-77 10.6-95 17.6-23.8 9.2-41 20.4-58.8 38.2-18 18-29 35-38.4 58.8-7 18-15.4 45.2-17.6 95-2.4 54-3 70.2-3 206.8s0.6 153 3 206.8c2.2 50 10.6 77 17.6 95 9.2 23.8 20.4 41 38.2 58.8 18 18 35 29 58.8 38.4 18 7 45.2 15.4 95 17.6 53.8 2.4 70 3 206.8 3zM512 960c-139 0-156.4-0.6-211-3-54.4-2.4-91.8-11.2-124.2-23.8-33.8-13.2-62.4-30.6-90.8-59.2-28.6-28.4-46-57-59.2-90.6-12.6-32.6-21.4-69.8-23.8-124.2-2.4-54.8-3-72.2-3-211.2s0.6-156.4 3-211c2.4-54.4 11.2-91.8 23.8-124.2 13.2-33.8 30.6-62.4 59.2-90.8 28.4-28.4 57-46 90.6-59 32.6-12.6 69.8-21.4 124.2-23.8 54.6-2.4 72-3 211-3s156.4 0.6 211 3c54.4 2.4 91.8 11.2 124.2 23.8 33.6 13 62.2 30.6 90.6 59s46 57 59 90.6c12.6 32.6 21.4 69.8 23.8 124.2 2.4 54.6 3 72 3 211s-0.6 156.4-3 211c-2.4 54.4-11.2 91.8-23.8 124.2-12.6 34-30 62.6-58.6 91-28.4 28.4-57 46-90.6 59-32.6 12.6-69.8 21.4-124.2 23.8-54.8 2.6-72.2 3.2-211.2 3.2v0zM512 711c-145.2 0-263-117.8-263-263s117.8-263 263-263 263 117.8 263 263c0 145.2-117.8 263-263 263zM512 277.4c-94.2 0-170.6 76.4-170.6 170.6s76.4 170.6 170.6 170.6c94.2 0 170.6-76.4 170.6-170.6s-76.4-170.6-170.6-170.6zM846.8 721.4c0-33.91-27.49-61.4-61.4-61.4s-61.4 27.49-61.4 61.4c0 33.91 27.49 61.4 61.4 61.4s61.4-27.49 61.4-61.4z" />
<glyph unicode="&#xeac6;" glyph-name="skype1" data-tags="skype" d="M425.6 922.6c-1.6 1-3.4 1.8-5 2.6-1.8-0.4-3.4-0.6-5.2-1l10.2-1.6zM36.8 539c-0.4-1.8-0.6-3.6-0.8-5.2 1-1.6 1.6-3.2 2.6-4.8l-1.8 10zM986.8 357.4c0.4 1.8 0.6 3.6 1 5.4-1 1.6-1.6 3.2-2.6 4.8l1.6-10.2zM592-23c1.6-1 3.4-1.8 5-2.6 1.8 0.4 3.6 0.6 5.4 0.8l-10.4 1.8zM987.8 362.8c-0.4-1.8-0.6-3.6-1-5.4l-1.8 10.4c1-1.8 1.8-3.4 2.8-5 5.2 28.8 8 58.2 8 87.6 0 65.2-12.8 128.6-38 188.2-24.4 57.6-59.2 109.4-103.6 153.8s-96.2 79.2-153.6 103.6c-59.6 25.2-123 38-188.2 38-30.8 0-61.6-2.8-91.6-8.6 0 0-0.2 0-0.2 0 1.6-0.8 3.4-1.6 5-2.6l-10.2 1.6c1.8 0.4 3.4 0.6 5.2 1-41.2 21.8-87.4 33.6-134.2 33.6-76.4 0-148.4-29.8-202.4-83.8s-83.8-126-83.8-202.4c0-48.6 12.6-96.6 36-138.8 0.4 1.8 0.6 3.6 0.8 5.2l1.8-10.2c-1 1.6-1.8 3.2-2.6 4.8-4.8-27.4-7.2-55.4-7.2-83.4 0-65.2 12.8-128.6 38-188.2 24.4-57.6 59.2-109.2 103.6-153.6s96.2-79.2 153.8-103.6c59.6-25.2 123-38 188.2-38 28.4 0 56.8 2.6 84.6 7.6-1.6 1-3.2 1.8-5 2.6l10.4-1.8c-1.8-0.4-3.6-0.6-5.4-0.8 42.8-24.2 91.4-37.2 140.8-37.2 76.4 0 148.4 29.8 202.4 83.8s83.8 126 83.8 202.4c-0.2 48.6-12.8 96.6-36.4 139.2zM514.2 154.2c-171.8 0-248.6 84.4-248.6 147.8 0 32.4 24 55.2 57 55.2 73.6 0 54.4-105.6 191.6-105.6 70.2 0 109 38.2 109 77.2 0 23.4-11.6 49.4-57.8 60.8l-152.8 38.2c-123 30.8-145.4 97.4-145.4 160 0 129.8 122.2 178.6 237 178.6 105.8 0 230.4-58.4 230.4-136.4 0-33.4-29-52.8-62-52.8-62.8 0-51.2 86.8-177.6 86.8-62.8 0-97.4-28.4-97.4-69s49.6-53.6 92.6-63.4l113.2-25.2c123.8-27.6 155.2-100 155.2-168 0-105.4-81-184.2-244.4-184.2z" />
<glyph unicode="&#xeacb;" glyph-name="linkedin1" data-tags="linkedin, brand, social" d="M384 576h177.106v-90.782h2.532c24.64 44.194 84.958 90.782 174.842 90.782 186.946 0 221.52-116.376 221.52-267.734v-308.266h-184.61v273.278c0 65.184-1.334 149.026-96.028 149.026-96.148 0-110.82-70.986-110.82-144.292v-278.012h-184.542v576zM64 576h192v-576h-192v576zM256 736c0-53.019-42.981-96-96-96s-96 42.981-96 96c0 53.019 42.981 96 96 96s96-42.981 96-96z" />
<glyph unicode="&#xead2;" glyph-name="pinterest1" data-tags="pinterest" d="M512 891.6c-245 0-443.6-198.6-443.6-443.6 0-188 117-348.4 282-413-3.8 35-7.4 89 1.6 127.2 8 34.6 52 220.4 52 220.4s-13.2 26.6-13.2 65.8c0 61.6 35.8 107.8 80.2 107.8 37.8 0 56.2-28.4 56.2-62.4 0-38-24.2-95-36.8-147.6-10.6-44.2 22-80.2 65.6-80.2 78.8 0 139.4 83.2 139.4 203.2 0 106.2-76.4 180.4-185.2 180.4-126.2 0-200.2-94.6-200.2-192.6 0-38.2 14.6-79 33-101.2 3.6-4.4 4.2-8.2 3-12.8-3.4-14-10.8-44.2-12.4-50.4-2-8.2-6.4-9.8-14.8-6-55.4 25.8-90 106.8-90 171.8 0 140 101.6 268.4 293 268.4 153.8 0 273.4-109.6 273.4-256.2 0-152.8-96.4-276-230.2-276-45 0-87.2 23.4-101.6 51 0 0-22.2-84.6-27.6-105.4-10-38.6-37-86.8-55.2-116.2 41.6-12.8 85.6-19.8 131.4-19.8 245 0 443.6 198.6 443.6 443.6 0 245.2-198.6 443.8-443.6 443.8z" />
</font>
</defs>
</svg>
